<svg version="1.1" xmlns="http://www.w3.org/2000/svg" xmlns:xlink="http://www.w3.org/1999/xlink" width="145.0902" height="287.48416" viewBox="0,0,145.0902,287.48416"><g transform="translate(-2.9993,-84.79853)"><g data-paper-data="{&quot;isPaintingLayer&quot;:true}" fill-rule="nonzero" stroke-linejoin="miter" stroke-miterlimit="10" stroke-dasharray="" stroke-dashoffset="0" style="mix-blend-mode: normal"><path d="M39.13694,129.23376c0.34853,-5.90516 4.551,-16.67593 5.51265,-16.33654c1.40096,0.49441 11.03955,-8.91555 22.21121,-11.21575c3.88774,-0.80048 26.17838,-11.64806 29.88771,-11.29184c7.34938,0.70579 -4.90965,13.6627 -4.39039,13.75097c1.43671,0.24423 7.63278,3.56462 10.42141,10.30661c0.79232,1.91557 39.33916,24.16688 41.55997,28.78372c2.47206,5.13915 -31.34975,-7.15857 -30.14398,-1.41698c0.77536,3.69203 12.03027,15.78763 16.34502,26.35966c4.70198,11.5208 2.46057,21.44867 2.49636,22.23066c0.02092,0.45707 -10.81687,-8.54976 -16.61808,-17.38853c-6.38566,-9.72924 -11.4843,-36.24704 -11.4843,-36.24704c0,0 -5.20386,0.00536 -10.74121,0.75929c-1.00123,0.1363 -3.9705,7.80591 -5.37872,7.99764c-1.81389,0.24699 -11.82414,-8.92222 -14.09039,-8.32917c-1.47301,0.38546 -4.67613,0.82375 -8.44375,2.5891c-3.89755,1.82624 -8.3992,5.07265 -12.21451,11.14989c-7.90604,12.59319 -35.70856,-8.62117 -35.70856,-8.62117c0,0 20.23291,-3.81976 20.77951,-13.08054z" data-paper-data="{&quot;index&quot;:null}" fill="#0f0f0f" stroke="#000000" stroke-width="7.5" stroke-linecap="round"/><path d="M103.22823,208.95982c0,0 6.8858,-5.81386 11.53759,-3.28c6.76582,3.68544 11.22134,14.76556 11.29057,16.27034c0.51049,11.09629 2.00892,38.58438 -1.52477,53.50468c-5.12705,21.64789 -17.53173,19.02585 -21.20332,14.90438c-9.03003,-10.13648 -12.34861,-44.51343 -12.00682,-51.88929c0.56128,-12.11404 12.98874,-30.54625 12.98874,-30.54625" fill="#464646" stroke="#000000" stroke-width="7.5" stroke-linecap="round"/><path d="M129.74865,317.42519c0,0 -23.85792,8.46032 -24.84674,6.71881c-2.21174,-3.89519 -5.9581,-11.60754 -7.03938,-20.72535c-1.27671,-10.76483 0.96735,-22.03357 2.22124,-22.09418c3.57288,-0.17273 7.98554,-4.06254 13.43392,-3.7658c5.44833,0.29674 10.13276,3.70004 11.37567,5.11696c6.09014,6.94302 5.68251,33.58637 5.68251,33.58637" fill="#f5cfae" stroke="#000000" stroke-width="7.5" stroke-linecap="round"/><path d="M141.32151,340.65784c0,0 -8.06459,-6.96827 -8.36747,-4.73758c-0.00515,0.03775 -1.78408,18.70449 -6.16076,19.82594c-5.7916,1.48403 -15.11693,-8.73735 -15.43334,-9.56589c-0.99533,-2.60616 -3.87903,-11.93808 -5.55519,-16.15319c-0.51703,-1.30009 16.08931,-6.84139 29.43178,-9.58157c6.56045,-1.34737 7.62241,18.25022 7.62241,18.25022" fill="#f5cfae" stroke="#000000" stroke-width="7.5" stroke-linecap="round"/><path d="M112.79345,274.96547l-2.50804,-64.00892" fill="none" stroke="#686e62" stroke-width="1.5" stroke-linecap="round"/><path d="M102.52538,220.4726l0.06157,54.98695" fill="none" stroke="#686e62" stroke-width="1.5" stroke-linecap="round"/><path d="M91.20281,298.09216l-0.76378,-14.53318l38.86604,-13.78516l6.94086,15.377z" fill="#464646" stroke="#000000" stroke-width="7.5" stroke-linecap="butt"/><path d="M63.63026,222.16823v-39.89368h29.36179v39.89368z" data-paper-data="{&quot;index&quot;:null}" fill="#f5cfae" stroke="none" stroke-width="0" stroke-linecap="butt"/><path d="M49.9067,338.97693c0,0 4.12714,-18.67772 1.61937,-40.10356c-1.4877,-12.71051 -10.06757,-28.04283 -10.24058,-36.4988c-0.18705,-9.14326 -8.56774,-29.28793 -8.8484,-40.60683c-0.25744,-10.38143 7.576,-12.36553 7.576,-12.36553c0,0 9.50337,-8.15835 23.08412,-10.12251c3.71161,-0.53679 10.50735,15.20272 17.97163,15.7723c2.75128,0.20996 5.59337,-14.32741 8.40534,-14.35479c3.50477,-0.03408 2.97249,-4.68076 6.2159,-4.9153c9.8371,-0.71135 22.87021,12.51696 22.87021,12.51696l-0.99389,130.03973z" data-paper-data="{&quot;index&quot;:null}" fill="#464646" stroke="none" stroke-width="0" stroke-linecap="butt"/><path d="M72.11231,335.99875l1.38457,-123.45786c0,0 5.00858,5.55921 7.73614,4.84929c2.87942,-0.74944 7.72494,-7.61844 7.72494,-7.61844l0.23076,126.22701z" fill="#8b8b8b" stroke="#000000" stroke-width="2.5" stroke-linecap="butt"/><path d="M95.88083,196.38752l-4.38448,1.38457l-11.30735,18.46099l-17.30718,-18.69175l-3.46144,-1.61534l0.23076,3.6922l20.99938,23.07623l14.53803,-22.61471z" fill="#ffffff" stroke="#000000" stroke-width="2.5" stroke-linecap="round"/><path d="M51.7962,369.02806v-30.95746h66.38305v30.95746z" data-paper-data="{&quot;index&quot;:null}" fill="#0c0c18" stroke="none" stroke-width="0" stroke-linecap="butt"/><path d="M93.47852,185.81746l-0.34043,8.85107c0,0 22.94965,10.25522 25.47075,22.1109c2.52109,11.85564 -4.96358,68.46352 -2.33615,86.68022c2.8324,19.63809 2.68772,50.76078 2.50054,63.02133l0.36302,-11.37332" data-paper-data="{&quot;index&quot;:null}" fill="none" stroke="#000000" stroke-width="7.5" stroke-linecap="round"/><path d="M123.158,202.11286" data-paper-data="{&quot;index&quot;:null}" fill="none" stroke="#000000" stroke-width="2.5" stroke-linecap="round"/><path d="M76.37058,370.1628l15.95748,0.31917" data-paper-data="{&quot;index&quot;:null}" fill="none" stroke="#000000" stroke-width="2.5" stroke-linecap="round"/><path d="M54.03009,337.75143l61.59584,1.27663" data-paper-data="{&quot;index&quot;:null}" fill="none" stroke="#000000" stroke-width="7.5" stroke-linecap="round"/><path d="M49.63174,368.53269c0,0 3.6445,-21.02197 -0.69906,-58.73268c-3.24525,-28.1753 -17.7337,-77.4971 -16.82014,-90.08408c0.99928,-13.76765 27.05114,-24.52394 27.05114,-24.52394v-11.5745" data-paper-data="{&quot;index&quot;:null}" fill="none" stroke="#000000" stroke-width="7.5" stroke-linecap="round"/><path d="M72.31909,183.67064c0,0 -20.19622,-3.62024 -28.409,-21.10911c-7.05693,-15.02759 -2.70847,-43.80432 1.51116,-48.99002c5.94693,-7.30835 31.6195,-12.42395 32.13402,-12.40037c4.02655,0.1847 17.30425,3.01614 22.62187,10.29911c2.19642,3.0082 9.38283,22.67171 9.46754,40.52922c0.06536,13.77411 -6.01381,26.68181 -9.96023,28.75199c-9.68149,5.07861 -26.7129,3.62734 -26.7129,3.62734" data-paper-data="{&quot;index&quot;:null}" fill="#f5cfae" stroke="#000000" stroke-width="7.5" stroke-linecap="round"/><path d="M29.32843,211.0012c0,0 7.33728,-5.23259 11.76678,-2.32757c6.44254,4.22521 9.97907,15.63197 9.92528,17.13739c-0.39669,11.10096 -1.14627,38.61965 -5.88565,53.20183c-6.87634,21.15735 -19.02577,17.53181 -22.34879,13.12449c-8.1728,-10.83953 -8.67515,-45.37266 -7.73261,-52.69601c1.54791,-12.02785 15.43801,-29.38449 15.43801,-29.38449" data-paper-data="{&quot;index&quot;:null}" fill="#464646" stroke="#000000" stroke-width="7.5" stroke-linecap="round"/><path d="M48.07865,321.13302c0,0 -24.46872,6.48531 -25.31214,4.66891c-1.88647,-4.06266 -4.99103,-12.05498 -5.32472,-21.23065c-0.39398,-10.83306 2.76209,-21.88111 4.01673,-21.83922c3.57507,0.11938 8.29047,-3.39739 13.69642,-2.65703c5.40592,0.74032 9.79704,4.51453 10.92017,6.02817c5.50328,7.41684 2.92293,33.93805 2.92293,33.93805" data-paper-data="{&quot;index&quot;:null}" fill="#f5cfae" stroke="#000000" stroke-width="7.5" stroke-linecap="round"/><path d="M57.71712,345.23251c0,0 -7.46903,-7.60309 -7.95294,-5.40456c-0.00822,0.03723 -3.30442,18.49657 -7.75803,19.25712c-5.89347,1.00654 -14.35355,-9.94172 -14.60133,-10.79332c-0.77938,-2.67862 -2.89197,-12.21475 -4.21859,-16.5526c-0.40918,-1.33795 16.59394,-5.50571 30.11552,-7.14803c6.64851,-0.80755 6.10777,18.81134 6.10777,18.81134" data-paper-data="{&quot;index&quot;:null}" fill="#f5cfae" stroke="#000000" stroke-width="7.5" stroke-linecap="round"/><path d="M10.93696,299.02108l0.42466,-14.54703l39.86128,-10.56772l5.66296,15.89208z" data-paper-data="{&quot;index&quot;:null}" fill="#464646" stroke="#000000" stroke-width="7.5" stroke-linecap="butt"/><path d="M39.13694,129.23376c0.34853,-5.90516 4.551,-16.67593 5.51265,-16.33654c0.73092,0.25795 -23.18547,13.10166 -23.18547,13.10166c0,0 3.42662,-3.64629 4.87559,-5.81742c6.26997,-9.39489 20.50114,-32.06973 21.236,-31.62651c5.79771,3.49683 14.6632,14.07816 19.28509,13.12653c11.59058,-2.38647 24.71598,2.3263 25.49732,2.45913c1.43671,0.24423 19.10502,16.7601 23.35083,22.05319c4.2777,5.33283 4.95295,11.53453 6.10173,17.00473c1.62029,7.71539 -15.38009,28.16822 -15.31145,29.66781c0.04395,0.96018 -1.5647,-36.09763 -1.5647,-36.09763c0,0 -5.20386,0.00536 -10.74121,0.75929c-1.00123,0.1363 -3.9705,7.80591 -5.37872,7.99764c-1.81389,0.24699 -11.82414,-8.92222 -14.09039,-8.32917c-1.75351,0.45885 -6.03422,20.36567 -6.03422,20.36567c0,0 -11.51104,-11.58523 -14.62404,-6.62668c-7.90604,12.59319 -13.09385,28.53157 -13.09385,28.53157c0,0 -2.3818,-40.9725 -1.8352,-50.23328z" data-paper-data="{&quot;index&quot;:null}" fill="#0f0f0f" stroke="#000000" stroke-width="7.5" stroke-linecap="round"/><path d="M92.47246,165.2437l0.30193,-16.00353" data-paper-data="{&quot;index&quot;:null}" fill="none" stroke="#000000" stroke-width="7.5" stroke-linecap="round"/><path d="M82.50795,165.54558l0.6039,-15.70156" data-paper-data="{&quot;index&quot;:null}" fill="none" stroke="#000000" stroke-width="7.5" stroke-linecap="round"/></g></g></svg>