<svg version="1.1" xmlns="http://www.w3.org/2000/svg" xmlns:xlink="http://www.w3.org/1999/xlink" width="72.75305" height="137.97329" viewBox="0,0,72.75305,137.97329"><g transform="translate(-294.87832,-111.01335)"><g data-paper-data="{&quot;isPaintingLayer&quot;:true}" fill-rule="nonzero" stroke-linejoin="miter" stroke-miterlimit="10" stroke-dasharray="" stroke-dashoffset="0" style="mix-blend-mode: normal"><g><g><path d="M301.00191,245.28419l6.5612,-16.53084l6.30417,1.31073c0,0 -1.4933,5.30874 -1.50536,7.96087c-0.00315,0.69097 -0.29164,2.89761 1.57425,4.01506c2.43173,1.45632 7.32246,1.88551 9.02902,3.09293c2.34094,1.65626 0.27565,2.32434 0.27565,2.32434c0,0 -13.80523,0.75268 -17.80766,0.36158c-2.1042,-0.20561 -4.43126,-2.53466 -4.43126,-2.53466z" fill="#352a1c" stroke="none" stroke-width="0" stroke-linecap="butt"/><path d="M314.50311,229.05959c0,0 -2.6835,7.57417 -0.75977,12.62478c0.87931,2.30859 7.27919,1.62885 9.62969,2.29427c2.40312,0.68031 0.74073,2.69114 0.0609,3.758c-0.58998,0.92588 -21.55059,0.85577 -22.08395,-0.83653c-0.41708,-1.32332 -0.38905,-2.50295 0.44739,-4.34811c0.23323,-0.51449 1.61769,-0.95747 1.74982,-1.61956c1.05364,-5.27966 3.95033,-12.3606 3.95033,-12.3606" fill="none" stroke="#000000" stroke-width="2.5" stroke-linecap="round"/></g><path d="M306.84981,234.47886l0.9526,-13.42848c0,0 2.24136,-1.2844 3.47222,-1.05742c1.23877,0.22844 3.9368,2.4237 3.9368,2.4237l-1.6356,12.22054z" fill="#1c2436" stroke="none" stroke-width="0" stroke-linecap="butt"/><path d="M307.13675,220.10077c0.00218,0.09014 2.18322,-2.08133 4.20593,-1.89258c2.06506,0.1927 3.97267,2.74569 3.97227,2.84006c-0.0252,5.88735 -2.5679,13.92079 -2.5679,13.92079l-6.82526,-0.54928c0,0 1.41162,-8.10696 0.97892,-14.47825" fill="none" stroke="#000000" stroke-width="2.5" stroke-linecap="round"/></g><path d="M311.07163,151.73817v-13.02083h10.75001v13.02083z" fill="#533013" stroke="none" stroke-width="0" stroke-linecap="butt"/><g><g><path d="M321.32732,245.51215l3.97642,-17.33511l6.43007,0.3388c0,0 -0.67033,5.47388 -0.27975,8.09712c0.10175,0.68344 0.15149,2.90831 2.16536,3.72964c2.62458,1.0704 7.52379,0.75238 9.39382,1.68682c2.56518,1.2818 0.62521,2.25558 0.62521,2.25558c0,0 -13.53109,2.8391 -17.54651,3.05995c-2.11103,0.11612 -4.76461,-1.83279 -4.76461,-1.83279z" fill="#352a1c" stroke="none" stroke-width="0" stroke-linecap="butt"/><path d="M332.20983,227.42646c0,0 -1.50293,7.8937 1.16502,12.59385c1.21948,2.1484 7.44207,0.50526 9.86633,0.80626c2.47854,0.30772 1.14057,2.54755 0.63053,3.70522c-0.44263,1.00469 -21.17109,4.11646 -21.95511,2.52472c-0.61309,-1.24469 -0.76441,-2.41491 -0.21768,-4.36564c0.15245,-0.54393 1.45364,-1.19189 1.48376,-1.86636c0.24017,-5.37841 2.02867,-12.81694 2.02867,-12.81694" fill="none" stroke="#000000" stroke-width="2.5" stroke-linecap="round"/></g><path d="M325.46762,233.94447l-1.09639,-13.41751c0,0 2.02048,-1.60968 3.27152,-1.57213c1.25909,0.03779 4.25903,1.79817 4.25903,1.79817l0.23799,12.32721z" fill="#1c2436" stroke="none" stroke-width="0" stroke-linecap="butt"/><path d="M323.56915,219.68938c0.01584,0.08876 1.84206,-2.38856 3.86999,-2.50897c2.07039,-0.12293 4.34336,2.11098 4.35728,2.20432c0.86858,5.82298 -0.42547,14.14926 -0.42547,14.14926l-6.82956,0.49292c0,0 0.16492,-8.22729 -1.22969,-14.45911" fill="none" stroke="#000000" stroke-width="2.5" stroke-linecap="round"/></g><g><path d="M323.95887,220.04591c0,0 -1.81047,-7.4134 -2.20329,-11.23757c-0.42686,-4.15565 -0.26431,-12.78467 -0.26431,-12.78467l8.34196,-0.81217l1.83797,24.67797c0,0 -1.95871,1.20991 -3.04834,1.23203c-1.40171,0.02843 -4.66397,-1.07556 -4.66397,-1.07556z" fill="#1c2436" stroke="none" stroke-width="0" stroke-linecap="butt"/><path d="M330.08552,196.23516c0,0 1.92812,15.58346 1.54199,21.98508c-0.17172,2.84691 -2.3544,3.68877 -4.56025,3.08402c-2.37648,-0.65153 -4.77986,-2.98216 -4.72437,-6.29358c0.03978,-2.37349 -1.48527,-3.94392 -1.67509,-7.1462c-0.27927,-4.71131 0.72752,-10.82894 0.72752,-10.82894" fill="none" stroke="#000000" stroke-width="2.5" stroke-linecap="round"/></g><path d="M307.75914,189.86317c0,0 -2.7574,-22.24218 -2.81387,-25.00211c-0.11706,-5.72134 -0.4153,-17.28956 -0.4153,-17.28956c0,0 3.10179,-2.66279 7.53439,-3.30387c1.21143,-0.17521 3.42948,4.96198 5.86573,5.14789c0.89799,0.06852 1.82562,-4.67631 2.74341,-4.68524c1.14392,-0.01112 0.97019,-1.52774 2.0288,-1.60429c3.21072,-0.23217 7.46457,4.08539 7.46457,4.08539l-0.3244,42.44345z" fill="#ffffff" stroke="none" stroke-width="0" stroke-linecap="butt"/><path d="M308.3758,199.6715v-10.10416h21.66666v10.10416z" fill="#1c2436" stroke="none" stroke-width="0" stroke-linecap="butt"/><path d="M321.98046,139.8737l-0.11111,2.88889c0,0 7.49049,3.34719 8.31335,7.21674c0.82286,3.86955 -1.62005,22.3457 -0.76249,28.29142c0.92446,6.40965 0.87724,16.56773 0.81615,20.56943" fill="none" stroke="#000000" stroke-width="2.5" stroke-linecap="round"/><path d="M331.66747,145.19234" fill="none" stroke="#000000" stroke-width="2.5" stroke-linecap="round"/><path d="M316.39662,199.6715l5.20833,0.10417" fill="none" stroke="#000000" stroke-width="2.5" stroke-linecap="round"/><path d="M309.10496,189.46317l20.10417,0.41667" fill="none" stroke="#000000" stroke-width="2.5" stroke-linecap="round"/><path d="M307.66935,199.50982c0,0 1.18953,-6.86133 -0.22816,-19.16966c-1.05922,-9.1961 -5.78808,-25.29415 -5.4899,-29.4024c0.32615,-4.4936 8.82917,-8.00433 8.82917,-8.00433v-3.77778" fill="none" stroke="#000000" stroke-width="2.5" stroke-linecap="round"/><path d="M320.9883,144.02983c0,0 -2.06958,6.04167 -3.4375,6.04167c-1.76093,0 -6.25,-6.04167 -6.25,-6.04167" fill="none" stroke="#000000" stroke-width="2.5" stroke-linecap="round"/><g><path d="M308.14704,221.97953c0,0 -0.73989,-7.59532 -0.58595,-11.43653c0.16729,-4.17416 1.55302,-12.69273 1.55302,-12.69273l8.37277,0.38009l-1.68345,24.68899c0,0 -2.11063,0.91964 -3.19235,0.78687c-1.39155,-0.1708 -4.46407,-1.72668 -4.46407,-1.72668z" fill="#1c2436" stroke="none" stroke-width="0" stroke-linecap="butt"/><path d="M317.59135,199.27949c0,0 -0.30333,15.69936 -1.59419,21.98135c-0.57407,2.79372 -2.85415,3.31725 -4.95182,2.40553c-2.25995,-0.98226 -4.30818,-3.63043 -3.78322,-6.90045c0.37626,-2.34381 -0.91043,-4.11481 -0.6438,-7.31162c0.39229,-4.70325 2.25722,-10.61604 2.25722,-10.61604" fill="none" stroke="#000000" stroke-width="2.5" stroke-linecap="round"/></g><path d="M317.1138,140.04453c0,0 -8.40383,-0.52659 -11.31543,-6.12043c-2.50183,-4.80659 0.30162,-14.63376 1.60854,-16.38118c2.05357,-2.74572 8.29839,-4.55762 9.92937,-4.54954c1.31559,0.00651 6.06802,0.82969 7.89934,3.13385c1.33988,1.68583 5.44843,12.2969 3.59647,17.04311c-2.5068,6.42441 -11.49606,7.09642 -11.49606,7.09642" fill="#533013" stroke="#000000" stroke-width="2.5" stroke-linecap="round"/><path d="M319.39429,128.4143v-5.76923" fill="none" stroke="#000000" stroke-width="2.5" stroke-linecap="round"/><path d="M314.09942,128.50405v-5.76923" fill="none" stroke="#000000" stroke-width="2.5" stroke-linecap="round"/><path d="M305.31083,120.35826c0.88692,-2.12788 4.43214,-6.78913 9.65402,-8.09491c5.22188,-1.3058 10.78243,0.76315 12.98401,2.43399c2.41017,1.82913 3.22185,5.33794 0.76993,6.25358c-2.45191,0.91564 -10.05663,-4.32301 -13.36113,-3.17127c-0.02888,0.01006 -6.05811,5.67576 -9.11914,6.17393c-3.85207,0.62691 -1.81461,-1.46746 -0.9277,-3.59532z" fill="#000000" stroke="#000000" stroke-width="2.5" stroke-linecap="butt"/><g stroke="#000000" stroke-width="2.5" stroke-linecap="round"><path d="M300.53554,149.40714c0,0 2.33874,-1.78385 3.81417,-0.88259c2.14595,1.31085 3.41916,4.99491 3.41739,5.48656c-0.0131,3.62551 0.03071,12.61051 -1.36258,17.41717c-2.02153,6.974 -6.02289,5.91858 -7.15311,4.51564c-2.77971,-3.45044 -3.30542,-14.71057 -3.07469,-17.10947c0.37894,-3.93994 4.72831,-9.74757 4.72831,-9.74757" fill="#ffffff"/><path d="M307.80611,185.13789c0,0 -7.91424,2.37201 -8.20841,1.78831c-0.65798,-1.30556 -1.75449,-3.88028 -1.95949,-6.87007c-0.24204,-3.52984 0.67178,-7.16701 1.08151,-7.16649c1.16751,0.00149 2.66891,-1.19515 4.4402,-1.01028c1.77129,0.18487 3.24331,1.37009 3.62555,1.8521c1.873,2.36186 1.30912,11.04064 1.30912,11.04064" fill="#533013"/><path d="M311.20291,192.89865c0,0 -2.5162,-2.40202 -2.65104,-1.67974c-0.00229,0.01223 -0.88416,6.06857 -2.32905,6.36335c-1.91202,0.39009 -4.78659,-3.09281 -4.87634,-3.36802c-0.28231,-0.86566 -1.07139,-3.9544 -1.54962,-5.35559c-0.14751,-0.43217 5.35559,-1.96994 9.74938,-2.64737c2.16041,-0.3331 2.18958,6.07264 2.18958,6.07264" fill="#533013"/></g><path d="M313.73096,133.97189l5,-0.16667" fill="none" stroke="#000000" stroke-width="1.25" stroke-linecap="round"/><path d="M325.34246,150.75253c0,0 -0.10975,-2.93935 1.47714,-3.62559c2.30808,-0.9981 6.05249,0.08484 6.45324,0.36966c2.95517,2.10035 10.32284,7.24326 13.44773,11.15227c4.53391,5.67159 1.36516,8.33314 -0.43274,8.44812c-4.4218,0.2828 -13.92644,-5.77763 -15.7538,-7.34884c-3.00126,-2.58054 -5.24032,-9.48215 -5.24032,-9.48215" data-paper-data="{&quot;index&quot;:null}" fill="#ffffff" stroke="#000000" stroke-width="2.5" stroke-linecap="round"/><path d="M354.1239,153.98552c0,0 4.88186,6.66551 4.43012,7.13793c-1.01039,1.05666 -3.07025,2.951 -5.81939,4.14393c-3.24572,1.40843 -6.97909,1.76342 -7.11561,1.3771c-0.38899,-1.1008 -2.01879,-2.11564 -2.43685,-3.84679c-0.41806,-1.73115 0.20672,-3.51475 0.53317,-4.03616c1.59961,-2.55495 9.96736,-4.92557 9.96736,-4.92557" data-paper-data="{&quot;index&quot;:null}" fill="#533013" stroke="#000000" stroke-width="2.5" stroke-linecap="round"/><path d="M360.3021,148.1892c0,0 -1.42238,3.17456 -0.69659,3.06012c0.01229,-0.00193 6.01489,-1.19596 6.77585,0.06719c1.00698,1.67152 -1.31422,5.54524 -1.54358,5.72185c-0.72143,0.55552 -3.36852,2.332 -4.52914,3.25124c-0.35797,0.28353 -3.64736,-4.38859 -5.75501,-8.30294c-1.03633,-1.92467 4.99092,-4.09413 4.99092,-4.09413" data-paper-data="{&quot;index&quot;:null}" fill="#533013" stroke="#000000" stroke-width="2.5" stroke-linecap="round"/></g></g></svg>