<svg version="1.1" xmlns="http://www.w3.org/2000/svg" xmlns:xlink="http://www.w3.org/1999/xlink" width="50.24339" height="144.95968" viewBox="0,0,50.24339,144.95968"><g transform="translate(-294.87831,-104.60867)"><g data-paper-data="{&quot;isPaintingLayer&quot;:true}" fill-rule="nonzero" stroke-linejoin="miter" stroke-miterlimit="10" stroke-dasharray="" stroke-dashoffset="0" style="mix-blend-mode: normal"><g><g><path d="M301.0019,245.8659l6.5612,-16.53084l6.30417,1.31073c0,0 -1.4933,5.30874 -1.50536,7.96087c-0.00315,0.69097 -0.29164,2.89761 1.57425,4.01506c2.43173,1.45632 7.32246,1.88551 9.02902,3.09293c2.34094,1.65626 0.27565,2.32434 0.27565,2.32434c0,0 -13.80523,0.75268 -17.80766,0.36158c-2.1042,-0.20561 -4.43126,-2.53466 -4.43126,-2.53466z" fill="#352a1c" stroke="none" stroke-width="0" stroke-linecap="butt"/><path d="M314.50311,229.6413c0,0 -2.6835,7.57417 -0.75977,12.62478c0.87931,2.30859 7.27919,1.62885 9.62969,2.29427c2.40312,0.68031 0.74073,2.69114 0.0609,3.758c-0.58998,0.92588 -21.55059,0.85577 -22.08395,-0.83653c-0.41708,-1.32332 -0.38905,-2.50295 0.44739,-4.34811c0.23323,-0.51449 1.61769,-0.95747 1.74982,-1.61956c1.05364,-5.27966 3.95033,-12.3606 3.95033,-12.3606" fill="none" stroke="#000000" stroke-width="2.5" stroke-linecap="round"/></g><path d="M306.84981,235.06057l0.9526,-13.42848c0,0 2.24136,-1.2844 3.47222,-1.05742c1.23877,0.22844 3.9368,2.4237 3.9368,2.4237l-1.6356,12.22054z" fill="#1c2436" stroke="none" stroke-width="0" stroke-linecap="butt"/><path d="M307.13674,220.68248c0.00218,0.09014 2.18322,-2.08133 4.20593,-1.89258c2.06506,0.1927 3.97267,2.74569 3.97227,2.84006c-0.0252,5.88735 -2.5679,13.92079 -2.5679,13.92079l-6.82526,-0.54928c0,0 1.41162,-8.10696 0.97892,-14.47825" fill="none" stroke="#000000" stroke-width="2.5" stroke-linecap="round"/></g><g stroke="#000000" stroke-width="2.5" stroke-linecap="round"><path d="M324.83726,147.46074c0,0 2.5191,-1.42596 4.04911,-0.62082c2.22532,1.17103 3.73136,4.76619 3.76102,5.25694c0.21861,3.61894 0.83652,12.58279 -0.24675,17.46867c-1.57174,7.08893 -5.63236,6.29137 -6.84992,4.96353c-2.99452,-3.26574 -4.23875,-14.46926 -4.16179,-16.878c0.12639,-3.95611 4.09573,-10.02981 4.09573,-10.02981" fill="#3e3e3e"/><g fill="#ffcb90"><path d="M334.67332,183.89414c0,0 -7.50769,3.44909 -7.88014,2.91195c-0.83307,-1.20142 -2.27683,-3.59873 -2.89543,-6.531c-0.73034,-3.46194 -0.33099,-7.19082 0.07484,-7.24725c1.15639,-0.16081 2.47686,-1.55453 4.25665,-1.61766c1.77979,-0.06314 3.40227,0.90596 3.8478,1.33015c2.18312,2.07857 2.8311,10.75148 2.8311,10.75148"/><path d="M339.22233,190.96622c0,0 -2.82566,-2.02895 -2.8588,-1.29493c-0.00057,0.01243 -0.03203,6.13256 -1.42191,6.62532c-1.83923,0.65207 -5.17002,-2.39742 -5.29716,-2.65749c-0.39989,-0.81803 -1.61066,-3.76708 -2.27901,-5.08818c-0.20614,-0.40747 5.02976,-2.69526 9.28673,-3.97688c2.09313,-0.63017 3.01245,5.70932 3.01245,5.70932"/></g></g><path d="M312.23829,152.31988v-13.02083h9.58334v13.02083z" fill="#ffcb90" stroke="none" stroke-width="0" stroke-linecap="butt"/><g><g><path d="M321.32732,246.09386l3.97642,-17.33511l6.43007,0.3388c0,0 -0.67033,5.47388 -0.27975,8.09712c0.10175,0.68344 0.15149,2.90831 2.16536,3.72964c2.62458,1.0704 7.52379,0.75238 9.39382,1.68682c2.56518,1.2818 0.62521,2.25558 0.62521,2.25558c0,0 -13.53109,2.8391 -17.54651,3.05995c-2.11103,0.11612 -4.76461,-1.83279 -4.76461,-1.83279z" fill="#352a1c" stroke="none" stroke-width="0" stroke-linecap="butt"/><path d="M332.20982,228.00817c0,0 -1.50293,7.8937 1.16502,12.59385c1.21948,2.1484 7.44207,0.50526 9.86633,0.80626c2.47854,0.30772 1.14057,2.54755 0.63053,3.70522c-0.44263,1.00469 -21.17109,4.11646 -21.95511,2.52472c-0.61309,-1.24469 -0.76441,-2.41491 -0.21768,-4.36564c0.15245,-0.54393 1.45364,-1.19189 1.48376,-1.86636c0.24017,-5.37841 2.02867,-12.81694 2.02867,-12.81694" fill="none" stroke="#000000" stroke-width="2.5" stroke-linecap="round"/></g><path d="M325.46761,234.52618l-1.09639,-13.41751c0,0 2.02048,-1.60968 3.27152,-1.57213c1.25909,0.03779 4.25903,1.79817 4.25903,1.79817l0.23799,12.32721z" fill="#1c2436" stroke="none" stroke-width="0" stroke-linecap="butt"/><path d="M323.56914,220.27109c0.01584,0.08876 1.84206,-2.38856 3.86999,-2.50897c2.07039,-0.12293 4.34336,2.11098 4.35728,2.20432c0.86858,5.82298 -0.42547,14.14926 -0.42547,14.14926l-6.82956,0.49292c0,0 0.16492,-8.22729 -1.22969,-14.45911" fill="none" stroke="#000000" stroke-width="2.5" stroke-linecap="round"/></g><g><path d="M323.95887,220.62762c0,0 -1.81047,-7.4134 -2.20329,-11.23757c-0.42686,-4.15565 -0.26431,-12.78467 -0.26431,-12.78467l8.34196,-0.81217l1.83797,24.67797c0,0 -1.95871,1.20991 -3.04834,1.23203c-1.40171,0.02843 -4.66397,-1.07556 -4.66397,-1.07556z" fill="#1c2436" stroke="none" stroke-width="0" stroke-linecap="butt"/><path d="M330.08551,196.81687c0,0 1.92812,15.58346 1.54199,21.98508c-0.17172,2.84691 -2.3544,3.68877 -4.56025,3.08402c-2.37648,-0.65153 -4.77986,-2.98216 -4.72437,-6.29358c0.03978,-2.37349 -1.48527,-3.94392 -1.67509,-7.1462c-0.27927,-4.71131 0.72752,-10.82894 0.72752,-10.82894" fill="none" stroke="#000000" stroke-width="2.5" stroke-linecap="round"/></g><path d="M307.75913,190.44488c0,0 1.34705,-6.09618 0.52854,-13.08933c-0.48557,-4.14856 -3.28594,-9.15285 -3.34241,-11.91278c-0.11706,-5.72134 -0.4153,-17.28956 -0.4153,-17.28956c0,0 3.10179,-2.66279 7.53439,-3.30387c1.21143,-0.17521 3.42948,4.96198 5.86573,5.14789c0.89799,0.06852 1.82562,-4.67631 2.74341,-4.68524c1.14392,-0.01112 0.97019,-1.52774 2.0288,-1.60429c3.21072,-0.23217 7.46457,4.08539 7.46457,4.08539l-0.3244,42.44345z" fill="#3e3e3e" stroke="none" stroke-width="0" stroke-linecap="butt"/><path d="M308.37579,200.25321v-10.10416h21.66666v10.10416z" fill="#1c2436" stroke="none" stroke-width="0" stroke-linecap="butt"/><path d="M321.98046,140.45541l-0.11111,2.88889c0,0 7.49049,3.34719 8.31335,7.21674c0.82286,3.86955 -1.62005,22.3457 -0.76249,28.29142c0.92446,6.40965 0.87724,16.56773 0.81615,20.56943" fill="none" stroke="#000000" stroke-width="2.5" stroke-linecap="round"/><path d="M331.66746,145.77405" fill="none" stroke="#000000" stroke-width="2.5" stroke-linecap="round"/><path d="M316.39662,200.25321l5.20833,0.10417" fill="none" stroke="#000000" stroke-width="2.5" stroke-linecap="round"/><path d="M309.10495,190.04488l20.10417,0.41667" fill="none" stroke="#000000" stroke-width="2.5" stroke-linecap="round"/><path d="M307.66934,200.09153c0,0 1.18953,-6.86133 -0.22816,-19.16966c-1.05922,-9.1961 -5.78808,-25.29415 -5.4899,-29.4024c0.32615,-4.4936 8.82917,-8.00433 8.82917,-8.00433v-3.77778" fill="none" stroke="#000000" stroke-width="2.5" stroke-linecap="round"/><path d="M320.98829,144.61154c0,0 -2.06958,6.04167 -3.4375,6.04167c-1.76093,0 -6.25,-6.04167 -6.25,-6.04167" fill="none" stroke="#000000" stroke-width="2.5" stroke-linecap="round"/><g><path d="M308.14703,222.56124c0,0 -0.73989,-7.59532 -0.58595,-11.43653c0.16729,-4.17416 1.55302,-12.69273 1.55302,-12.69273l8.37277,0.38009l-1.68345,24.68899c0,0 -2.11063,0.91964 -3.19235,0.78687c-1.39155,-0.1708 -4.46407,-1.72668 -4.46407,-1.72668z" fill="#1c2436" stroke="none" stroke-width="0" stroke-linecap="butt"/><path d="M317.59134,199.8612c0,0 -0.30333,15.69936 -1.59419,21.98135c-0.57407,2.79372 -2.85415,3.31725 -4.95182,2.40553c-2.25995,-0.98226 -4.30818,-3.63043 -3.78322,-6.90045c0.37626,-2.34381 -0.91043,-4.11481 -0.6438,-7.31162c0.39229,-4.70325 2.25722,-10.61604 2.25722,-10.61604" fill="none" stroke="#000000" stroke-width="2.5" stroke-linecap="round"/></g><path d="M317.11379,140.62624c0,0 -8.40383,-0.52659 -11.31543,-6.12043c-2.50183,-4.80659 0.30162,-14.63376 1.60854,-16.38118c2.05357,-2.74572 8.29839,-4.55762 9.92937,-4.54954c1.31559,0.00651 6.06802,0.82969 7.89934,3.13385c1.33988,1.68583 5.44843,12.2969 3.59647,17.04311c-2.5068,6.42441 -11.49606,7.09642 -11.49606,7.09642" fill="#ffcb90" stroke="#000000" stroke-width="2.5" stroke-linecap="round"/><path d="M321.56095,127.49601v-5.76923" fill="none" stroke="#000000" stroke-width="2.5" stroke-linecap="round"/><path d="M317.09941,127.41909v-5.76923" fill="none" stroke="#000000" stroke-width="2.5" stroke-linecap="round"/><path d="M304.02248,126.72678c-0.11512,-2.30244 1.0791,-8.03565 5.23077,-11.46153c4.15167,-3.42589 10.06135,-3.95126 12.76767,-3.39048c2.96273,0.6139 5.20539,3.43188 3.38617,5.31356c-1.81922,1.88168 -11.32147,-0.72916 -13.80869,1.73255c-0.02174,0.02151 -2.64261,8.88509 -5.19131,10.65206c-3.20735,2.2236 -2.2695,-0.54372 -2.38462,-2.84615z" fill="#1d0d00" stroke="#000000" stroke-width="2.5" stroke-linecap="butt"/><g stroke="#000000" stroke-width="2.5" stroke-linecap="round"><path d="M300.53553,150.65552c0,0 2.33874,-1.78385 3.81417,-0.88259c2.14595,1.31085 3.41916,4.99491 3.41739,5.48656c-0.0131,3.62551 0.03071,12.61051 -1.36258,17.41717c-2.02153,6.974 -6.02289,5.91858 -7.15311,4.51564c-2.77971,-3.45044 -3.30542,-14.71057 -3.07469,-17.10947c0.37894,-3.93994 4.72831,-9.74757 4.72831,-9.74757" fill="#3e3e3e"/><path d="M307.80611,186.38627c0,0 -7.91424,2.37201 -8.20841,1.78831c-0.65798,-1.30556 -1.75449,-3.88028 -1.95949,-6.87007c-0.24204,-3.52984 0.67178,-7.16701 1.08151,-7.16649c1.16751,0.00149 2.66891,-1.19515 4.4402,-1.01028c1.77129,0.18487 3.24331,1.37009 3.62555,1.8521c1.873,2.36186 1.30912,11.04064 1.30912,11.04064" fill="#ffcb90"/><path d="M311.2029,194.14703c0,0 -2.5162,-2.40202 -2.65104,-1.67974c-0.00229,0.01223 -0.88416,6.06857 -2.32905,6.36335c-1.91202,0.39009 -4.78659,-3.09281 -4.87634,-3.36802c-0.28231,-0.86566 -1.07139,-3.9544 -1.54962,-5.35559c-0.14751,-0.43217 5.35559,-1.96994 9.74938,-2.64737c2.16041,-0.3331 2.18958,6.07264 2.18958,6.07264" fill="#ffcb90"/></g><path d="M304.34626,127.49158c-0.20468,-2.29621 0.76542,-8.07157 4.78056,-11.65649c1.54726,-1.38147 8.37216,-9.34271 10.18694,-9.97642c2.89459,-1.01076 0.76346,5.81176 2.43905,6.09141c2.98438,0.49808 5.33506,3.22662 3.59049,5.17769c-1.03336,1.15568 -6.32165,3.8413 -9.73525,3.92422c-2.34944,0.05707 -3.02138,-2.69766 -3.99552,-1.65537c-0.02089,0.02234 -2.29468,8.98124 -4.77265,10.8461c-3.11835,2.34679 -2.28895,-0.45495 -2.49362,-2.75116z" fill="#1d0d00" stroke="#000000" stroke-width="2.5" stroke-linecap="butt"/></g></g></svg>