<svg version="1.1" xmlns="http://www.w3.org/2000/svg" xmlns:xlink="http://www.w3.org/1999/xlink" width="137.06187" height="267.29171" viewBox="0,0,137.06187,267.29171"><g transform="translate(-1.95745,-109.74099)"><g data-paper-data="{&quot;isPaintingLayer&quot;:true}" fill-rule="nonzero" stroke-linejoin="miter" stroke-miterlimit="10" stroke-dasharray="" stroke-dashoffset="0" style="mix-blend-mode: normal"><path d="M94.35802,233.05951c0,0 6.44491,-5.28968 11.21301,-3.97851c6.93502,1.90703 12.05666,9.70436 12.22166,10.83294c1.21671,8.3221 4.46236,28.90746 1.92015,40.64577c-3.68846,17.03116 -16.13836,16.6606 -20.03774,14.02193c-9.59033,-6.48964 -15.07967,-32.04629 -15.21406,-37.66658c-0.22083,-9.23072 10.90193,-24.77939 10.90193,-24.77939" data-paper-data="{&quot;index&quot;:null}" fill="#0082ed" stroke="#000000" stroke-width="7.5" stroke-linecap="round"/><path d="M125.81749,317.6767c0,0 -22.77761,11.04347 -23.95272,9.42181c-2.62835,-3.62709 -7.20357,-10.87849 -9.28525,-19.82114c-2.45771,-10.55794 -1.47194,-22.00558 -0.23243,-22.20431c3.53195,-0.56628 7.48808,-4.91965 12.93586,-5.22642c5.44774,-0.3068 10.47941,2.55833 11.87119,3.82934c6.81968,6.22796 9.35707,32.75332 9.35707,32.75332" data-paper-data="{&quot;index&quot;:null}" fill="#0082ed" stroke="#000000" stroke-width="7.5" stroke-linecap="round"/><path d="M133.958,335.20999c0,0 -8.78478,-6.03498 -8.83947,-3.78449c-0.00095,0.03812 0.29257,18.78714 -3.9335,20.38508c-5.59235,2.11465 -15.98941,-7.01435 -16.39542,-7.80287c-1.27708,-2.48022 -5.17377,-11.43659 -7.3052,-15.44082c-0.65742,-1.23505 15.23534,-8.57648 28.19357,-12.77348c6.3715,-2.06367 9.59135,17.29675 9.59135,17.29675" data-paper-data="{&quot;index&quot;:null}" fill="#f5b57e" stroke="#000000" stroke-width="7.5" stroke-linecap="round"/><path d="M103.79346,297.96548l-2.50804,-64.00892" fill="none" stroke="#686e62" stroke-width="1.5" stroke-linecap="round"/><path d="M93.52539,243.47261l0.06157,54.98695" fill="none" stroke="#686e62" stroke-width="1.5" stroke-linecap="round"/><path d="M54.38027,252.91824c0,0 -12.66332,-13.51851 -12.62101,-21.58169c0.04098,-7.80996 12.87102,-26.06199 12.87102,-26.06199h29.36179l0.75,50.39368z" data-paper-data="{&quot;index&quot;:null}" fill="#f5b57e" stroke="none" stroke-width="0" stroke-linecap="butt"/><path d="M40.57338,339.97694c0,0 4.12714,-15.83347 1.61937,-33.99658c-1.4877,-10.77495 -10.06757,-23.77246 -10.24058,-30.94075c-0.18705,-7.75092 -8.56774,-24.82796 -8.8484,-34.42321c-0.25744,-8.80054 7.576,-10.4825 7.576,-10.4825c0,0 7.00337,-11.74723 20.58412,-13.41228c0.25874,-0.03172 29.57707,0.86871 30.59287,0.80643c9.8371,-0.60303 26.03688,14.33719 26.03688,14.33719l0.33944,107.57057z" data-paper-data="{&quot;index&quot;:null}" fill="#0082ed" stroke="none" stroke-width="0" stroke-linecap="butt"/><path d="M42.79621,372.77807v-30.95746h66.38305v30.95746z" data-paper-data="{&quot;index&quot;:null}" fill="#131313" stroke="none" stroke-width="0" stroke-linecap="butt"/><path d="M84.47853,208.81747l-0.34043,8.85107c0,0 22.94965,10.25522 25.47075,22.1109c2.52109,11.85564 -4.96358,68.46352 -2.33615,86.68022c2.8324,19.63809 2.43772,33.01078 2.25054,45.27133" data-paper-data="{&quot;index&quot;:null}" fill="none" stroke="#000000" stroke-width="7.5" stroke-linecap="round"/><path d="M114.15801,225.11287" data-paper-data="{&quot;index&quot;:null}" fill="none" stroke="#000000" stroke-width="2.5" stroke-linecap="round"/><path d="M67.62059,372.91281l15.95748,0.31917" data-paper-data="{&quot;index&quot;:null}" fill="none" stroke="#000000" stroke-width="2.5" stroke-linecap="round"/><path d="M107.62594,340.02807l-61.59584,-1.27663" data-paper-data="{&quot;index&quot;:null}" fill="none" stroke="#000000" stroke-width="7.5" stroke-linecap="round"/><path d="M42.13175,373.2827c0,0 2.1445,-2.77197 -2.19906,-40.48268c-3.24525,-28.1753 -17.7337,-77.4971 -16.82014,-90.08408c0.99928,-13.76765 27.05114,-24.52394 27.05114,-24.52394v-11.5745" data-paper-data="{&quot;index&quot;:null}" fill="none" stroke="#000000" stroke-width="7.5" stroke-linecap="round"/><path d="M63.3191,206.67065c0,0 -20.19622,-3.62024 -28.409,-21.10911c-7.05693,-15.02759 -2.70847,-43.80432 1.51116,-48.99002c5.94693,-7.30835 31.6195,-12.42395 32.13402,-12.40037c4.02655,0.1847 17.30425,3.01614 22.62187,10.29911c2.19642,3.0082 9.38283,22.67171 9.46754,40.52922c0.06536,13.77411 -6.01381,26.68181 -9.96023,28.75199c-9.68149,5.07861 -26.87956,2.96068 -26.87956,2.96068" data-paper-data="{&quot;index&quot;:null}" fill="#f5b57e" stroke="#000000" stroke-width="7.5" stroke-linecap="round"/><path d="M20.32844,233.22157c0,0 7.33728,-3.96003 11.76678,-1.7615c6.44254,3.19764 9.97907,11.83029 9.92528,12.96959c-0.39669,8.40122 -1.14627,29.22739 -5.88565,40.26319c-6.87634,16.0119 -19.02577,13.26809 -22.34879,9.93263c-8.1728,-8.20337 -8.67515,-34.33807 -7.73261,-39.88039c1.54791,-9.10269 15.43801,-22.23821 15.43801,-22.23821" data-paper-data="{&quot;index&quot;:null}" fill="#0082ed" stroke="#000000" stroke-width="7.5" stroke-linecap="round"/><path d="M39.41199,322.46636c0,0 -24.46872,6.48531 -25.31214,4.66891c-1.88647,-4.06266 -4.99103,-12.05498 -5.32472,-21.23065c-0.39398,-10.83306 2.76209,-21.88111 4.01673,-21.83922c3.57507,0.11938 8.29047,-3.39739 13.69642,-2.65703c5.40592,0.74032 9.79704,4.51453 10.92017,6.02817c5.50328,7.41684 2.92293,33.93805 2.92293,33.93805" data-paper-data="{&quot;index&quot;:null}" fill="#0082ed" stroke="#000000" stroke-width="7.5" stroke-linecap="round"/><path d="M44.05047,341.23252c0,0 -7.46903,-7.60309 -7.95294,-5.40456c-0.00822,0.03723 -3.30442,18.49657 -7.75803,19.25712c-5.89347,1.00654 -14.35355,-9.94172 -14.60133,-10.79332c-0.77938,-2.67862 -2.89197,-12.21475 -4.21859,-16.5526c-0.40918,-1.33795 16.59394,-5.50571 30.11552,-7.14803c6.64851,-0.80755 6.10777,18.81134 6.10777,18.81134" data-paper-data="{&quot;index&quot;:null}" fill="#f5b57e" stroke="#000000" stroke-width="7.5" stroke-linecap="round"/><path d="M83.47247,188.24371l0.30193,-16.00353" data-paper-data="{&quot;index&quot;:null}" fill="none" stroke="#000000" stroke-width="5" stroke-linecap="round"/><path d="M74.11186,172.84402l-0.6039,15.70156" data-paper-data="{&quot;index&quot;:null}" fill="none" stroke="#000000" stroke-width="5" stroke-linecap="round"/><path d="M53.71849,143.49099c0,6.07513 -5.37259,11 -12,11c-6.62741,0 -12,-4.92487 -12,-11c0,-6.07513 5.37259,-11 12,-11c6.62741,0 12,4.92487 12,11z" fill="#000000" stroke="#000000" stroke-width="7.5" stroke-linecap="butt"/><path d="M79.71849,139.49099c0,6.07513 -5.37259,11 -12,11c-6.62741,0 -12,-4.92487 -12,-11c0,-6.07513 5.37259,-11 12,-11c6.62741,0 12,4.92487 12,11z" fill="#000000" stroke="#000000" stroke-width="7.5" stroke-linecap="butt"/><path d="M61.71849,126.49099c0,6.07513 -5.37259,11 -12,11c-6.62741,0 -12,-4.92487 -12,-11c0,-6.07513 5.37259,-11 12,-11c6.62741,0 12,4.92487 12,11z" fill="#000000" stroke="#000000" stroke-width="7.5" stroke-linecap="butt"/><path d="M74.71849,135.49099c-6.62741,0 -12,-4.92487 -12,-11c0,-6.07513 5.37259,-11 12,-11c6.62741,0 12,4.92487 12,11c0,6.07513 -5.37259,11 -12,11z" data-paper-data="{&quot;index&quot;:null}" fill="#000000" stroke="#000000" stroke-width="7.5" stroke-linecap="butt"/><path d="M100.71849,139.49099c-6.62741,0 -12,-4.92487 -12,-11c0,-6.07513 5.37259,-11 12,-11c6.62741,0 12,4.92487 12,11c0,6.07513 -5.37259,11 -12,11z" data-paper-data="{&quot;index&quot;:null}" fill="#000000" stroke="#000000" stroke-width="7.5" stroke-linecap="butt"/><path d="M82.71849,152.49099c-6.62741,0 -12,-4.92487 -12,-11c0,-6.07513 5.37259,-11 12,-11c6.62741,0 12,4.92487 12,11c0,6.07513 -5.37259,11 -12,11z" data-paper-data="{&quot;index&quot;:null}" fill="#000000" stroke="#000000" stroke-width="7.5" stroke-linecap="butt"/><path d="M25.10075,146.41565c-5.88854,-1.49411 -9.34082,-7.91289 -7.71088,-14.33674c1.62993,-6.42386 7.72486,-10.42021 13.61339,-8.92611c5.88853,1.49411 9.34082,7.91289 7.71089,14.33675c-1.62994,6.42386 -7.72487,10.42021 -13.6134,8.9261z" data-paper-data="{&quot;index&quot;:null}" fill="#000000" stroke="#000000" stroke-width="7.5" stroke-linecap="butt"/><path d="M22.5835,172.60082c-5.88854,-1.4941 -9.34081,-7.91289 -7.71088,-14.33674c1.62993,-6.42386 7.72487,-10.42021 13.6134,-8.92611c5.88853,1.49411 9.34081,7.91289 7.71088,14.33675c-1.62994,6.42386 -7.72487,10.42021 -13.6134,8.9261z" data-paper-data="{&quot;index&quot;:null}" fill="#000000" stroke="#000000" stroke-width="7.5" stroke-linecap="butt"/><path d="M39.6111,158.35089c-5.88853,-1.4941 -9.34082,-7.9129 -7.71088,-14.33675c1.62994,-6.42386 7.72487,-10.42021 13.6134,-8.9261c5.88853,1.49411 9.34082,7.91289 7.71088,14.33674c-1.62994,6.42385 -7.72487,10.42021 -13.6134,8.92611z" data-paper-data="{&quot;index&quot;:null}" fill="#000000" stroke="#000000" stroke-width="7.5" stroke-linecap="butt"/><path d="M27.69033,168.73815c1.62994,-6.42386 7.72487,-10.42021 13.6134,-8.9261c5.88853,1.4941 9.34081,7.91289 7.71088,14.33674c-1.62994,6.42386 -7.72486,10.42022 -13.61339,8.92611c-5.88853,-1.4941 -9.34082,-7.9129 -7.71088,-14.33675z" data-paper-data="{&quot;index&quot;:null}" fill="#000000" stroke="#000000" stroke-width="7.5" stroke-linecap="butt"/><path d="M10.24497,172.31149c1.62993,-6.42386 7.72487,-10.42021 13.6134,-8.92611c5.88853,1.4941 9.34081,7.91289 7.71088,14.33675c-1.62994,6.42386 -7.72486,10.42021 -13.61339,8.92611c-5.88854,-1.4941 -9.34082,-7.91289 -7.71089,-14.33675z" data-paper-data="{&quot;index&quot;:null}" fill="#000000" stroke="#000000" stroke-width="7.5" stroke-linecap="butt"/><path d="M105.75532,142.48955c-1.62994,-6.42386 1.82235,-12.84264 7.71089,-14.33675c5.88853,-1.49411 11.98346,2.50225 13.61339,8.92611c1.62993,6.42386 -1.82235,12.84264 -7.71088,14.33674c-5.88854,1.4941 -11.98346,-2.50225 -13.6134,-8.9261z" data-paper-data="{&quot;index&quot;:null}" fill="#000000" stroke="#000000" stroke-width="7.5" stroke-linecap="butt"/><path d="M108.27257,168.67472c-1.62994,-6.42386 1.82234,-12.84264 7.71088,-14.33675c5.88853,-1.4941 11.98346,2.50225 13.6134,8.92611c1.62993,6.42386 -1.82235,12.84264 -7.71088,14.33674c-5.88854,1.4941 -11.98346,-2.50225 -13.6134,-8.9261z" data-paper-data="{&quot;index&quot;:null}" fill="#000000" stroke="#000000" stroke-width="7.5" stroke-linecap="butt"/><path d="M91.24497,154.42478c-1.62994,-6.42386 1.82235,-12.84264 7.71089,-14.33675c5.88854,-1.49411 11.98346,2.50225 13.6134,8.9261c1.62994,6.42385 -1.82235,12.84265 -7.71089,14.33675c-5.88854,1.4941 -11.98346,-2.50225 -13.6134,-8.92611z" data-paper-data="{&quot;index&quot;:null}" fill="#000000" stroke="#000000" stroke-width="7.5" stroke-linecap="butt"/><path d="M109.06825,188.0749c-5.88854,1.4941 -11.98346,-2.50226 -13.6134,-8.92611c-1.62994,-6.42386 1.82234,-12.84264 7.71088,-14.33674c5.88854,-1.4941 11.98346,2.50225 13.6134,8.9261c1.62994,6.42386 -1.82235,12.84265 -7.71088,14.33675z" data-paper-data="{&quot;index&quot;:null}" fill="#000000" stroke="#000000" stroke-width="7.5" stroke-linecap="butt"/><path d="M127.51361,191.64824c-5.88853,1.4941 -11.98346,-2.50225 -13.61339,-8.92611c-1.62994,-6.42386 1.82234,-12.84264 7.71088,-14.33675c5.88853,-1.4941 11.98346,2.50225 13.6134,8.92611c1.62993,6.42386 -1.82235,12.84264 -7.71088,14.33675z" data-paper-data="{&quot;index&quot;:null}" fill="#000000" stroke="#000000" stroke-width="7.5" stroke-linecap="butt"/><path d="M17.24497,186.31149c1.62993,-6.42386 7.72487,-10.42021 13.6134,-8.92611c5.88854,1.4941 9.34082,7.91289 7.71088,14.33675c-1.62994,6.42386 -7.72486,10.42021 -13.61339,8.92611c-5.88854,-1.4941 -9.34082,-7.91289 -7.71089,-14.33675z" data-paper-data="{&quot;index&quot;:null}" fill="#000000" stroke="#000000" stroke-width="7.5" stroke-linecap="butt"/><path d="M107.24497,190.31149c1.62994,-6.42386 7.72486,-10.42021 13.6134,-8.92611c5.88853,1.4941 9.34081,7.91289 7.71088,14.33675c-1.62994,6.42386 -7.72486,10.42021 -13.6134,8.92611c-5.88853,-1.4941 -9.34082,-7.91289 -7.71088,-14.33675z" data-paper-data="{&quot;index&quot;:null}" fill="#000000" stroke="#000000" stroke-width="7.5" stroke-linecap="butt"/><path d="M77.19036,202.68931l-12.94511,0.34648l-12.52677,-9.25017c0,0 -6.60447,-14.82943 -6.40057,-21.11457c0.21242,-6.54774 7.65057,-17.41634 7.65057,-17.41634l37.33462,-0.26372c0,0 5.87813,15.03929 5.87813,21.86173c0,6.00431 -5.87813,16.9329 -5.87813,16.9329z" data-paper-data="{&quot;index&quot;:null}" fill="#2d66ee" stroke="#000000" stroke-width="2.5" stroke-linecap="butt"/><path d="M83.01149,167.37811c0,0 0,7.81282 0,11" fill="none" stroke="#66c8ff" stroke-width="2.5" stroke-linecap="round"/><path d="M75.17815,178.62811c0,-3.20288 0,-11.25 0,-11.25" fill="none" stroke="#66c8ff" stroke-width="2.5" stroke-linecap="round"/><path d="M59.59482,191.79477l22.25,0.75" fill="none" stroke="#66c8ff" stroke-width="2.5" stroke-linecap="round"/><path d="M59.09482,188.54477v5.75" fill="none" stroke="#66c8ff" stroke-width="2.5" stroke-linecap="round"/><path d="M82.09482,188.54477v5.75" fill="none" stroke="#66c8ff" stroke-width="2.5" stroke-linecap="round"/><path d="M52.65746,214.3327c0,0 8.92707,4.20387 13.023,4.789c5.43623,0.7766 17.977,-3.789 17.977,-3.789" fill="none" stroke="#000000" stroke-width="5" stroke-linecap="round"/><path d="M79.60746,337.6327l-5.25,-118.5c0,0 -4.15641,0.4185 -6.2623,0.37721c-2.14345,-0.04203 -6.4877,-0.62721 -6.4877,-0.62721l6.75,119z" fill="#a8ceed" stroke="#000000" stroke-width="5" stroke-linecap="round"/><path d="M50.12034,332.85062c0,0 7.03982,-9.16637 6.85738,-14.44188c-0.19331,-5.58993 -7.98651,-18.20909 -7.98651,-18.20909l51.28946,-0.56021c0,0 -7.91658,12.92434 -7.63258,18.76126c0.26686,5.48461 9.28835,15.26917 9.28835,15.26917z" fill="#a8ceed" stroke="#000000" stroke-width="5" stroke-linecap="round"/></g></g></svg>