<svg version="1.1" xmlns="http://www.w3.org/2000/svg" xmlns:xlink="http://www.w3.org/1999/xlink" width="147.38684" height="276.24319" viewBox="0,0,147.38684,276.24319"><g transform="translate(-10.95746,-97.541)"><g data-paper-data="{&quot;isPaintingLayer&quot;:true}" fill-rule="nonzero" stroke-linejoin="miter" stroke-miterlimit="10" stroke-dasharray="" stroke-dashoffset="0" style="mix-blend-mode: normal"><path d="M103.22825,210.46132c0,0 6.8858,-5.81386 11.53759,-3.28c6.76582,3.68544 11.22134,14.76556 11.29057,16.27034c0.51049,11.09629 2.00892,38.58438 -1.52477,53.50468c-5.12705,21.64789 -17.53173,19.02585 -21.20332,14.90438c-9.03003,-10.13648 -12.34861,-44.51343 -12.00682,-51.88929c0.56128,-12.11404 12.98874,-30.54625 12.98874,-30.54625" fill="#e3e3e3" stroke="#000000" stroke-width="7.5" stroke-linecap="round"/><path d="M129.74866,318.92669c0,0 -23.85792,8.46032 -24.84674,6.71881c-2.21174,-3.89519 -5.9581,-11.60754 -7.03938,-20.72535c-1.27671,-10.76483 0.96735,-22.03357 2.22124,-22.09418c3.57288,-0.17273 7.98554,-4.06254 13.43392,-3.7658c5.44833,0.29674 10.13276,3.70004 11.37567,5.11696c6.09014,6.94302 5.68251,33.58637 5.68251,33.58637" fill="#e3e3e3" stroke="#000000" stroke-width="7.5" stroke-linecap="round"/><path d="M141.32153,342.15934c0,0 -8.06459,-6.96827 -8.36747,-4.73758c-0.00515,0.03775 -1.78408,18.70449 -6.16076,19.82594c-5.7916,1.48403 -15.11693,-8.73735 -15.43334,-9.56589c-0.99533,-2.60616 -3.87903,-11.93808 -5.55519,-16.15319c-0.51703,-1.30009 16.08931,-6.84139 29.43178,-9.58157c6.56045,-1.34737 7.62241,18.25022 7.62241,18.25022" fill="#d6aa8d" stroke="#000000" stroke-width="7.5" stroke-linecap="round"/><path d="M112.79347,276.46697l-2.50804,-64.00892" fill="none" stroke="#686e62" stroke-width="1.5" stroke-linecap="round"/><path d="M102.58697,276.96105l-0.06157,-54.98695" fill="none" stroke="#686e62" stroke-width="1.5" stroke-linecap="round"/><path d="M101.03616,335.09366l-0.76378,-14.53318l38.86604,-13.78516l6.94086,15.377z" fill="#e3e3e3" stroke="#000000" stroke-width="7.5" stroke-linecap="butt"/><path d="M63.63028,223.66973v-39.89368h29.36179v39.89368z" data-paper-data="{&quot;index&quot;:null}" fill="#d6aa8d" stroke="none" stroke-width="0" stroke-linecap="butt"/><path d="M49.90672,340.47843c0,0 4.12714,-18.67772 1.61937,-40.10356c-1.4877,-12.71051 -10.06757,-28.04283 -10.24058,-36.4988c-0.18705,-9.14326 -8.56774,-29.28793 -8.8484,-40.60683c-0.25744,-10.38143 7.576,-12.36553 7.576,-12.36553c0,0 9.50337,-8.15835 23.08412,-10.12251c3.71161,-0.53679 10.50735,15.20272 17.97163,15.7723c2.75128,0.20996 5.59337,-14.32741 8.40534,-14.35479c3.50477,-0.03408 2.97249,-4.68076 6.2159,-4.9153c9.8371,-0.71135 22.87021,12.51696 22.87021,12.51696l-0.99389,130.03973z" data-paper-data="{&quot;index&quot;:null}" fill="#1f1f45" stroke="none" stroke-width="0" stroke-linecap="butt"/><path d="M87.2,214.95014l1.66667,124.33334l-19.33334,-0.66667l3.66667,-122.33333c0,0 3.29139,3.59129 5.54382,3.37678c2.40432,-0.22898 8.45618,-4.71011 8.45618,-4.71011z" fill="#ff5721" stroke="#000000" stroke-width="7.5" stroke-linecap="round"/><path d="M95.18857,201.58121l-14.53803,22.61471l-20.99938,-23.07623l-0.23076,-3.6922l3.46144,1.61534l17.30718,18.69175l11.30735,-18.46099l4.38448,-1.38457z" fill="#ffffff" stroke="#000000" stroke-width="2.5" stroke-linecap="round"/><path d="M72.93334,337.23348l-30.66667,-0.86666l-1,-12.73334l31.26667,1.6z" data-paper-data="{&quot;index&quot;:null}" fill="#ffffff" stroke="#000000" stroke-width="2.5" stroke-linecap="round"/><g data-paper-data="{&quot;index&quot;:null}" fill="none" stroke="#245779" stroke-width="2.5" stroke-linecap="round"><path d="M67.49021,333.03945l4.30427,0.11819l-20.4779,-0.52671" data-paper-data="{&quot;index&quot;:null}"/><path d="M47.43335,332.56162l-4.30427,-0.11819l20.4779,0.52671" data-paper-data="{&quot;index&quot;:null}"/></g><g data-paper-data="{&quot;index&quot;:null}" fill="none" stroke="#245779" stroke-width="2.5" stroke-linecap="round"><path d="M67.36521,328.60195l4.30427,0.11819l-20.4779,-0.52671" data-paper-data="{&quot;index&quot;:null}"/><path d="M47.30835,328.12412l-4.36677,-0.11819l20.5404,0.52671" data-paper-data="{&quot;index&quot;:null}"/></g><path d="M51.79622,370.52956v-30.95746h66.38305v30.95746z" data-paper-data="{&quot;index&quot;:null}" fill="#0c0c18" stroke="none" stroke-width="0" stroke-linecap="butt"/><path d="M93.47854,187.31896l-0.34043,8.85107c0,0 22.94965,10.25522 25.47075,22.1109c2.52109,11.85564 -4.96358,68.46352 -2.33615,86.68022c2.8324,19.63809 2.68772,50.76078 2.50054,63.02133l0.36302,-11.37332" data-paper-data="{&quot;index&quot;:null}" fill="none" stroke="#000000" stroke-width="7.5" stroke-linecap="round"/><path d="M123.15802,203.61436" data-paper-data="{&quot;index&quot;:null}" fill="none" stroke="#000000" stroke-width="2.5" stroke-linecap="round"/><path d="M76.3706,371.6643l15.95748,0.31917" data-paper-data="{&quot;index&quot;:null}" fill="none" stroke="#000000" stroke-width="2.5" stroke-linecap="round"/><path d="M115.62595,340.52956l-61.59584,-1.27663" data-paper-data="{&quot;index&quot;:null}" fill="none" stroke="#000000" stroke-width="7.5" stroke-linecap="round"/><path d="M49.63176,370.03419c0,0 3.6445,-21.02197 -0.69906,-58.73268c-3.24525,-28.1753 -17.7337,-77.4971 -16.82014,-90.08408c0.99928,-13.76765 27.05114,-24.52394 27.05114,-24.52394v-11.5745" data-paper-data="{&quot;index&quot;:null}" fill="none" stroke="#000000" stroke-width="7.5" stroke-linecap="round"/><path d="M64.3191,184.17214c0,0 -13.40086,-5.18549 -20.409,-20.10911c-7.05693,-15.02759 -2.70847,-43.80432 1.51116,-48.99002c5.94693,-7.30835 31.6195,-12.42395 32.13402,-12.40037c4.02655,0.1847 17.30425,3.01614 22.62187,10.29911c2.19642,3.0082 9.38283,22.67171 9.46754,40.52922c0.06536,13.77411 -6.01381,26.68181 -9.96023,28.75199c-9.68149,5.07861 -26.7129,3.62734 -26.7129,3.62734z" data-paper-data="{&quot;index&quot;:null}" fill="#d6aa8d" stroke="#000000" stroke-width="7.5" stroke-linecap="round"/><path d="M29.32845,212.5027c0,0 7.33728,-5.23259 11.76678,-2.32757c6.44254,4.22521 9.97907,15.63197 9.92528,17.13739c-0.39669,11.10096 -1.14627,38.61965 -5.88565,53.20183c-6.87634,21.15735 -19.02577,17.53181 -22.34879,13.12449c-8.1728,-10.83953 -8.67515,-45.37266 -7.73261,-52.69601c1.54791,-12.02785 15.43801,-29.38449 15.43801,-29.38449" data-paper-data="{&quot;index&quot;:null}" fill="#e3e3e3" stroke="#000000" stroke-width="7.5" stroke-linecap="round"/><path d="M48.07867,322.63452c0,0 -24.46872,6.48531 -25.31214,4.66891c-1.88647,-4.06266 -4.99103,-12.05498 -5.32472,-21.23065c-0.39398,-10.83306 2.76209,-21.88111 4.01673,-21.83922c3.57507,0.11938 8.29047,-3.39739 13.69642,-2.65703c5.40592,0.74032 9.79704,4.51453 10.92017,6.02817c5.50328,7.41684 2.92293,33.93805 2.92293,33.93805" data-paper-data="{&quot;index&quot;:null}" fill="#e3e3e3" stroke="#000000" stroke-width="7.5" stroke-linecap="round"/><path d="M57.71714,346.73401c0,0 -7.46903,-7.60309 -7.95294,-5.40456c-0.00822,0.03723 -3.30442,18.49657 -7.75803,19.25712c-5.89347,1.00654 -14.35355,-9.94172 -14.60133,-10.79332c-0.77938,-2.67862 -2.89197,-12.21475 -4.21859,-16.5526c-0.40918,-1.33795 16.59394,-5.50571 30.11552,-7.14803c6.64851,-0.80755 6.10777,18.81134 6.10777,18.81134" data-paper-data="{&quot;index&quot;:null}" fill="#d6aa8d" stroke="#000000" stroke-width="7.5" stroke-linecap="round"/><path d="M14.93698,339.52258l0.42466,-14.54703l39.86128,-10.56772l5.66296,15.89208z" data-paper-data="{&quot;index&quot;:null}" fill="#e3e3e3" stroke="#000000" stroke-width="7.5" stroke-linecap="butt"/><path d="M39.13694,130.73526c0.21077,-3.57117 1.94898,-13.88491 9.58228,-20.63643c4.98885,-4.41255 16.3148,-6.53972 18.14158,-6.91585c11.59058,-2.38647 24.71598,2.3263 25.49732,2.45913c0.74832,0.12721 13.25364,-6.56571 25.9848,-8.42753c11.71133,-1.71268 25.69936,3.81406 25.69936,3.81406c0,0 -27.38038,21.53453 -26.2316,27.00473c1.62029,7.71539 30.02188,0.33447 30.02188,0.33447c0,0 -17.62989,20.80957 -30.34998,23.53066c-6.40171,1.36946 -11.70854,-7.91494 -16.16515,-7.83321c-10.14863,0.1861 -31.01849,-5.11274 -32.59322,-4.70065c-1.75351,0.45885 -3.21192,21.44711 -6.32492,26.40566c-7.90604,12.59319 -21.42718,15.19823 -21.42718,15.19823c0,0 -2.06301,-46.37359 -1.8352,-50.23328z" data-paper-data="{&quot;index&quot;:null}" fill="#500a09" stroke="#000000" stroke-width="7.5" stroke-linecap="round"/><path d="M92.47248,166.7452l0.30193,-14.67019" data-paper-data="{&quot;index&quot;:null}" fill="none" stroke="#000000" stroke-width="7.5" stroke-linecap="round"/><path d="M83.11187,151.34552l-0.6039,15.70156" data-paper-data="{&quot;index&quot;:null}" fill="none" stroke="#000000" stroke-width="7.5" stroke-linecap="round"/><path d="M86.6,324.88347l30.66667,0.86666l1,12.73334l-31.26667,-1.6z" fill="#ffffff" stroke="#000000" stroke-width="2.5" stroke-linecap="round"/><g fill="none" stroke="#245779" stroke-width="2.5" stroke-linecap="round"><path d="M92.04314,329.07749l-4.30427,-0.11819l20.4779,0.52671" data-paper-data="{&quot;index&quot;:null}"/><path d="M112.1,329.55533l4.30427,0.11818l-20.4779,-0.52671" data-paper-data="{&quot;index&quot;:null}"/></g><g fill="none" stroke="#245779" stroke-width="2.5" stroke-linecap="round"><path d="M92.16814,333.51499l-4.30427,-0.11819l20.4779,0.52671" data-paper-data="{&quot;index&quot;:null}"/><path d="M112.225,333.99283l4.36677,0.11818l-20.5404,-0.52671" data-paper-data="{&quot;index&quot;:null}"/></g><text transform="translate(94.4,246.70847) scale(0.5,0.5)" font-size="40" xml:space="preserve" fill="#ffffff" fill-rule="nonzero" stroke="none" stroke-width="1" stroke-linecap="butt" stroke-linejoin="miter" stroke-miterlimit="10" stroke-dasharray="" stroke-dashoffset="0" font-family="Handwriting" font-weight="normal" text-anchor="start" style="mix-blend-mode: normal"><tspan x="0" dy="0">M</tspan></text></g></g></svg>