<svg version="1.1" xmlns="http://www.w3.org/2000/svg" xmlns:xlink="http://www.w3.org/1999/xlink" width="128.44029" height="284.12661" viewBox="0,0,128.44029,284.12661"><g transform="translate(-7.0824,-130.27107)"><g data-paper-data="{&quot;isPaintingLayer&quot;:true}" fill-rule="nonzero" stroke-linejoin="miter" stroke-miterlimit="10" stroke-dasharray="" stroke-dashoffset="0" style="mix-blend-mode: normal"><path d="M72.00002,407.64769l-50.7016,-3.44829c0,0 2.98346,-28.65652 10.10451,-55.46454c1.76268,-6.63582 11.91452,-13.47128 12.87681,-19.36696c1.76375,-10.80599 -4.01404,-19.28542 -4.86966,-23.226c-1.27787,-5.88532 -10.44639,-19.13474 -11.30525,-24.94959c-0.70145,-4.74911 2.27188,-13.84482 1.60345,-17.76436c-1.16534,-6.83331 -5.8219,-10.92909 -5.59573,-14.04531c0.99928,-13.76765 26.05114,-23.52394 26.05114,-23.52394v-11.5745l34.31484,0.86664l-0.34043,8.85107c0,0 19.28298,2.58855 21.80408,14.44423c0.47194,2.21934 -2.27009,7.6851 -3.12123,13.43941c-1.41844,9.5897 3.83382,22.8964 2.65926,34.92146c-0.44132,4.51821 -7.51545,8.28293 -7.87654,12.43308c-0.05833,0.67035 -0.10744,1.33864 -0.14668,2.00435c-0.39691,6.73379 -0.93419,13.93019 1.63293,19.57527c2.32122,5.10434 7.72778,8.81872 8.18277,11.97333c2.8324,19.63809 12.68772,61.09412 12.50054,73.35467z" data-paper-data="{&quot;index&quot;:null}" fill="#f5b57e" stroke="#000000" stroke-width="7.5" stroke-linecap="round"/><path d="M21.64077,413.14769l8,-36l82.66667,0.33333l8.66667,35.66667z" fill="#1c0c00" stroke="#000000" stroke-width="2.5" stroke-linecap="butt"/><path d="M53.03026,255.16829v-39.89368h30.96179v39.89368z" data-paper-data="{&quot;index&quot;:null}" fill="#f5b57e" stroke="none" stroke-width="0" stroke-linecap="butt"/><path d="M43.83333,327.43187c0,0 -13.60037,-74.63291 -11.14034,-87.09351c1.38876,-7.03439 18.47367,-11.90649 18.47367,-11.90649l14.99646,14.71342c0,0 17.09207,-15.59686 18.42205,-16.18868c8.69624,-3.86966 14.91483,7.14192 14.91483,7.14192l-3,95c0,0 21.68497,42.68367 19.41547,44.41702c-13.12792,10.02658 -81.19276,2.35586 -88.40508,2.12762c-3.22322,-0.102 16.32294,-48.2113 16.32294,-48.2113z" fill="#1c0c00" stroke="#000000" stroke-width="2.5" stroke-linecap="butt"/><path d="M29.84657,242.49522c4.09541,3.04799 4.63537,22.66701 4.33064,24.14225c-2.24703,10.87838 0.26677,35.41501 -6.8439,48.99959c-10.31689,19.70988 -13.9615,4.03465 -16.50091,-0.86622c-6.2455,-12.05335 -4.46365,-41.91594 -2.31001,-48.97866c1.45292,-4.76485 0.98633,-10.08736 4.79089,-14.68261c0,0 12.4379,-11.66232 16.5333,-8.61434z" fill="#1c0c00" stroke="#000000" stroke-width="7.5" stroke-linecap="round"/><path d="M114.158,235.11289" data-paper-data="{&quot;index&quot;:null}" fill="none" stroke="#000000" stroke-width="2.5" stroke-linecap="round"/><path d="M52.98576,215.00401c0,0 -9.86289,-1.95358 -18.07567,-19.44245c-7.05693,-15.02759 -2.70847,-43.80432 1.51116,-48.99002c5.94693,-7.30835 31.6195,-12.42395 32.13402,-12.40037c4.02655,0.1847 17.30425,3.01614 22.62187,10.29911c2.19642,3.0082 9.38283,22.67171 9.46754,40.52922c0.06536,13.77411 -6.01381,26.68181 -9.96023,28.75199c-9.68149,5.07861 -26.7129,3.62734 -26.7129,3.62734z" data-paper-data="{&quot;index&quot;:null}" fill="#f5b57e" stroke="#000000" stroke-width="7.5" stroke-linecap="round"/><path d="M83.77439,182.24023l-0.30193,16.00353" data-paper-data="{&quot;index&quot;:null}" fill="none" stroke="#1d2022" stroke-width="7.5" stroke-linecap="round"/><path d="M74.11185,182.84407l-0.6039,15.70156" data-paper-data="{&quot;index&quot;:null}" fill="none" stroke="#1d2022" stroke-width="7.5" stroke-linecap="round"/><path d="M21.96728,296.89528c5.0613,0.66771 15.08719,17.54014 15.53947,18.97702c3.3351,10.59554 17.4798,30.8018 17.88486,46.1295c0.58769,22.23898 -10.22924,10.32302 -14.83385,7.27924c-11.32474,-7.48598 -24.31128,-34.43591 -25.86976,-41.65334c-1.05145,-4.86921 -4.05099,-9.2907 -2.96591,-15.15701c0,0 5.1839,-16.2431 10.24519,-15.57539z" fill="#f5b57e" stroke="#000000" stroke-width="7.5" stroke-linecap="round"/><path d="M61.01796,367.81092c0,0 -7.0745,-3.8857 -6.94613,-2.18572c0.00216,0.02879 1.63612,14.13497 -1.42802,15.65753c-4.05476,2.01489 -12.57733,-4.08081 -12.9427,-4.6444c-1.14924,-1.77273 -4.76045,-8.22817 -6.66832,-11.08494c-0.58846,-0.88113 10.8343,-7.61081 20.2827,-11.74987c4.64573,-2.03518 8.53089,12.3112 8.53089,12.3112" data-paper-data="{&quot;index&quot;:null}" fill="#f5b57e" stroke="#000000" stroke-width="7.5" stroke-linecap="round"/><path d="M101.59821,233.99522c4.0954,-3.04798 16.5333,8.61434 16.5333,8.61434c3.80456,4.59525 3.33797,9.91776 4.79089,14.68261c2.15364,7.06272 3.93549,36.92531 -2.31001,48.97866c-2.53941,4.90087 -6.18402,20.5761 -16.50091,0.86622c-7.11067,-13.58458 -4.59687,-38.12121 -6.8439,-48.99959c-0.30473,-1.47524 0.23523,-21.09426 4.33064,-24.14225z" fill="#1c0c00" stroke="#000000" stroke-width="7.5" stroke-linecap="round"/><path d="M102.99639,294.50471c4.41242,-2.56769 15.45871,10.4204 15.45871,10.4204c3.26319,4.99425 2.20052,10.23043 3.10793,15.12853c1.34505,7.26023 -0.24542,37.13362 -7.80783,48.40747c-3.07486,4.58392 -8.46054,19.74935 -16.49356,-0.99645c-5.53656,-14.29856 -0.27716,-38.39637 -1.28557,-49.45853c-0.13675,-1.50016 2.60787,-20.93375 7.0203,-23.50144z" fill="#f5b57e" stroke="#000000" stroke-width="7.5" stroke-linecap="round"/><path d="M92.89196,373.7485c0,0 -1.9472,-14.73505 3.12403,-14.64862c10.31373,0.17572 23.44808,1.98041 23.24489,3.0203c-0.65877,3.37151 -1.50153,10.72021 -1.87833,12.799c-0.11979,0.66089 -5.63282,9.57146 -10.15095,9.27589c-3.41428,-0.2233 -7.34595,-13.86866 -7.35507,-13.89606c-0.53706,-1.61801 -5.56617,4.6951 -5.56617,4.6951" data-paper-data="{&quot;index&quot;:null}" fill="#f5b57e" stroke="#000000" stroke-width="7.5" stroke-linecap="round"/><path d="M37.4762,262.96912l-2.80953,-5.51191" fill="none" stroke="#000000" stroke-width="0.5" stroke-linecap="round"/><path d="" fill="none" stroke="#000000" stroke-width="0.5" stroke-linecap="round"/><path d="M97.51191,259.04116l1.41666,-5.16667" fill="none" stroke="#000000" stroke-width="0.5" stroke-linecap="round"/><path d="M92.99773,176.22201c-7.30402,-2.17253 -19.17889,-18.84814 -27.24773,-18.84814c-7.4147,0 -4.1581,9.27199 -9.55739,18.37266c-6.19821,10.44728 -16.94293,14.98662 -24.24196,16.3576c-0.4833,0.09078 4.77517,20.60298 0.77273,32.10065c-1.93604,5.56161 -10.6778,8.49587 -12.62815,10.90483c-1.09029,1.34665 -9.75965,-9.27095 -9.7763,-16.06784c-0.0213,-8.69173 7.02478,-19.28054 9.62292,-27.18471c0.93695,-2.85041 -3.33561,-8.79154 -2.16011,-11.76696c7.81941,-19.79244 20.71517,-41.10221 36.00574,-47.31902c9.45116,-3.84263 31.5797,-1.20165 41.66155,10.57643c2.90071,3.38875 16.75178,10.70642 22.53204,22.11596c2.05665,4.05957 -2.47491,14.793 -0.47511,19.27708c4.22898,9.48248 14.51954,13.00721 15.51673,20.81474c1.02336,8.01242 -2.43473,13.69376 -3.63755,15.31409c-0.77272,1.04093 -12.06163,-0.2445 -18.88324,-11.04067c-2.66439,-4.21678 -0.98636,-14.50137 -4.67308,-21.95439c-3.5332,-7.14267 -12.48296,-11.54876 -12.83109,-11.65231z" fill="#090907" stroke="#000000" stroke-width="5" stroke-linecap="butt"/><path d="M92.83334,227.22139l-23.33334,22.33333l-6.66667,-1.33333l-15.66667,-15.33334l-2,-2.33333l5,-2.33333l15.66667,14l19,-16.33334z" fill="#351700" stroke="#000000" stroke-width="2.5" stroke-linecap="round"/><path d="M42.83334,282.34855l26.33333,-21.66667l4.33334,25.33333z" fill="none" stroke="#555555" stroke-width="2.5" stroke-linecap="round"/><path d="M47.16667,260.68189l45,41.33333" fill="none" stroke="#555555" stroke-width="2.5" stroke-linecap="round"/></g></g></svg>