<svg version="1.1" xmlns="http://www.w3.org/2000/svg" xmlns:xlink="http://www.w3.org/1999/xlink" width="145.03631" height="315.1189" viewBox="0,0,145.03631,315.1189"><g transform="translate(-4.37832,-55.98848)"><g data-paper-data="{&quot;isPaintingLayer&quot;:true}" fill-rule="nonzero" stroke-linejoin="miter" stroke-miterlimit="10" stroke-dasharray="" stroke-dashoffset="0" style="mix-blend-mode: normal"><g stroke="#000000" stroke-width="7.5" stroke-linecap="round"><path d="M98.82324,200.25073c0,0 7.95813,-4.50477 12.79161,-1.96124c7.03005,3.69942 11.7878,15.05696 11.8815,16.60729c0.69061,11.43266 2.64266,39.7505 -0.77951,55.18557c-4.96531,22.39475 -17.79329,19.87517 -21.6397,15.68037c-9.46004,-10.31685 -13.39071,-45.71008 -13.14758,-53.31957c0.39928,-12.49782 12.93889,-31.68534 12.93889,-31.68534" fill="#3e3e3e"/><g fill="#ffcb90"><path d="M129.8965,315.34809c0,0 -23.71767,10.89608 -24.89428,9.19919c-2.63177,-3.79543 -7.19277,-11.36881 -9.147,-20.63219c-2.30723,-10.93667 -1.04564,-22.71664 0.23643,-22.89491c3.65317,-0.50802 7.82469,-4.91094 13.44725,-5.11037c5.62256,-0.19946 10.74817,2.86203 12.15565,4.2021c6.89673,6.56644 8.94378,33.96517 8.94378,33.96517"/><path d="M144.26736,337.68961c0,0 -8.92659,-6.40969 -9.03128,-4.09084c-0.0018,0.03927 -0.10119,19.37347 -4.49198,20.93016c-5.81034,2.05996 -16.33269,-7.57373 -16.73435,-8.39532c-1.2633,-2.58425 -5.08826,-11.90064 -7.19966,-16.07416c-0.65122,-1.28724 15.8896,-8.51464 29.33787,-12.56343c6.61244,-1.99078 9.51668,18.03641 9.51668,18.03641"/></g></g><path d="M59.02163,215.60132v-41.13432h30.27488v41.13432z" fill="#ffcb90" stroke="none" stroke-width="0" stroke-linecap="butt"/><path d="M44.87144,337.04264c0,0 4.25549,-19.25855 1.66972,-41.35072c-1.53397,-13.10579 -10.38067,-28.91492 -10.55907,-37.63386c-0.3698,-18.07438 -1.31198,-54.61974 -1.31198,-54.61974c0,0 3.79892,-10.16207 17.80201,-12.18732c3.82705,-0.55351 16.83413,17.42548 24.53053,18.01279c2.83686,0.21646 5.76735,-14.77301 8.66675,-14.80122c3.61378,-0.03513 3.06495,-4.82631 6.40922,-5.06814c10.14304,-0.73345 23.58145,12.90622 23.58145,12.90622l-1.02482,134.08381z" fill="#3e3e3e" stroke="none" stroke-width="0" stroke-linecap="butt"/><path d="M46.81954,367.0283v-31.92022h68.4475v31.92022z" fill="#1c2436" stroke="none" stroke-width="0" stroke-linecap="butt"/><path d="M89.79828,178.12007l-0.35101,9.12634c0,0 23.66333,10.57417 26.26284,22.79853c2.59951,12.22436 -5.11792,70.59267 -2.40879,89.3759c2.92047,20.24883 2.7713,52.33939 2.57832,64.98123" fill="none" stroke="#000000" stroke-width="7.5" stroke-linecap="round"/><path d="M120.40064,194.92228" fill="none" stroke="#000000" stroke-width="2.5" stroke-linecap="round"/><path d="M72.15827,367.0283l16.45372,0.32908" fill="none" stroke="#000000" stroke-width="7.5" stroke-linecap="round"/><path d="M112.63446,336.0953l-63.51142,-1.31631" fill="none" stroke="#000000" stroke-width="7.5" stroke-linecap="round"/><path d="M44.58778,366.51753c0,0 3.75787,-21.67575 -0.72078,-60.5592c-3.3462,-29.05156 -18.28522,-79.90717 -17.34324,-92.88561c1.03035,-14.19581 27.89238,-25.28661 27.89238,-25.28661v-11.93445" fill="none" stroke="#000000" stroke-width="7.5" stroke-linecap="round"/><path d="M86.6639,191.24977c0,0 -6.53804,19.08634 -10.85946,19.08634c-5.56298,0 -19.74448,-19.08634 -19.74448,-19.08634" fill="none" stroke="#000000" stroke-width="7.5" stroke-linecap="round"/><path d="M73.9239,179.15974c0,0 -26.04868,-2.16356 -35.24676,-19.83515c-7.90357,-15.18458 0.95285,-46.22976 5.08156,-51.75006c6.48747,-8.67405 26.21558,-14.39805 31.36804,-14.37252c4.1561,0.02057 19.16959,2.62108 24.95494,9.90019c4.23283,5.32573 17.21223,38.84735 11.36167,53.84118c-7.91927,20.29546 -36.3174,22.41842 -36.3174,22.41842" fill="#ffcb90" stroke="#000000" stroke-width="7.5" stroke-linecap="round"/><path d="M88.473,137.17982v-18.22567" fill="none" stroke="#000000" stroke-width="7.5" stroke-linecap="round"/><path d="M74.37847,136.93682v-18.22567" fill="none" stroke="#000000" stroke-width="7.5" stroke-linecap="round"/><path d="M33.06692,134.74973c-0.36368,-7.27367 3.40901,-25.38556 16.52461,-36.20831c13.11561,-10.82278 31.78497,-12.48249 40.33456,-10.71092c9.35961,1.93938 16.44444,10.84171 10.69731,16.78616c-5.74713,5.94445 -35.76584,-2.3035 -43.62326,5.47333c-0.06868,0.06795 -8.34831,28.06904 -16.39995,33.6511c-10.1324,7.02461 -7.16961,-1.71768 -7.53329,-8.99132z" fill="#1d0d00" stroke="#000000" stroke-width="7.5" stroke-linecap="butt"/><g stroke="#000000" stroke-width="7.5" stroke-linecap="round"><path d="M22.05124,210.34341c0,0 7.38835,-5.63539 12.04941,-2.7882c6.77931,4.14113 10.80152,15.77951 10.79594,17.33268c-0.04138,11.45341 0.09701,39.83807 -4.30455,55.02287c-6.38625,22.03168 -19.02701,18.69749 -22.5975,14.26544c-8.78143,-10.90034 -10.44221,-46.47241 -9.7133,-54.05081c1.19712,-12.44673 14.93728,-30.79371 14.93728,-30.79371" fill="#3e3e3e"/><path d="M45.01985,323.22102c0,0 -25.00201,7.49345 -25.93132,5.64948c-2.07863,-4.12441 -5.54264,-12.25826 -6.19026,-21.70335c-0.76464,-11.15118 2.12224,-22.64142 3.41662,-22.63978c3.6883,0.00471 8.4314,-3.77562 14.02711,-3.19159c5.59571,0.58402 10.24599,4.32828 11.45353,5.851c5.91703,7.46139 4.13566,34.87867 4.13566,34.87867" fill="#ffcb90"/><path d="M55.75071,347.73816c0,0 -7.94897,-7.58826 -8.37495,-5.30649c-0.00724,0.03863 -2.79317,19.17132 -7.35774,20.10256c-6.04029,1.23234 -15.12139,-9.77055 -15.40492,-10.63997c-0.89185,-2.73472 -3.38465,-12.4924 -4.89543,-16.91893c-0.466,-1.36527 16.91893,-6.22327 30.79943,-8.36335c6.82498,-1.0523 6.91714,19.18417 6.91714,19.18417" fill="#ffcb90"/></g><path d="M31.41026,135.406c-0.71593,-8.03168 2.67728,-28.23271 16.72143,-40.77203c5.412,-4.8321 29.28411,-32.6789 35.63184,-34.89549c10.12469,-3.53543 2.67043,20.32835 8.5313,21.30651c10.43875,1.74218 18.66095,11.28606 12.5588,18.11051c-3.61448,4.04233 -22.11185,13.43609 -34.05192,13.72612c-8.21786,0.19962 -10.56817,-9.43587 -13.97552,-5.79015c-0.07307,0.07814 -8.02632,31.41455 -16.69376,37.93745c-10.90735,8.20859 -8.00628,-1.59132 -8.72218,-9.623z" fill="#1d0d00" stroke="#000000" stroke-width="7.5" stroke-linecap="butt"/></g></g></svg>