<svg version="1.1" xmlns="http://www.w3.org/2000/svg" xmlns:xlink="http://www.w3.org/1999/xlink" width="139.558" height="274.86163" viewBox="0,0,139.558,274.86163"><g transform="translate(-7.05095,-97.42107)"><g data-paper-data="{&quot;isPaintingLayer&quot;:true}" fill-rule="nonzero" stroke-linejoin="miter" stroke-miterlimit="10" stroke-dasharray="" stroke-dashoffset="0" style="mix-blend-mode: normal"><path d="M102.07443,209.19059c0,0 6.8858,-5.81386 11.53759,-3.28c6.76582,3.68544 11.22134,14.76556 11.29057,16.27034c0.51049,11.09629 2.00892,38.58438 -1.52477,53.50468c-5.12705,21.64789 -17.53173,19.02585 -21.20332,14.90438c-9.03003,-10.13648 -12.34861,-44.51343 -12.00682,-51.88929c0.56128,-12.11404 12.98874,-30.54625 12.98874,-30.54625" fill="#060606" stroke="#000000" stroke-width="7.5" stroke-linecap="round"/><path d="M129.74866,317.42519c0,0 -23.85792,8.46032 -24.84674,6.71881c-2.21174,-3.89519 -5.9581,-11.60754 -7.03938,-20.72535c-1.27671,-10.76483 0.96735,-22.03357 2.22124,-22.09418c3.57288,-0.17273 7.98554,-4.06254 13.43392,-3.7658c5.44833,0.29674 10.13276,3.70004 11.37567,5.11696c6.09014,6.94302 5.68251,33.58637 5.68251,33.58637" fill="#f5b57e" stroke="#000000" stroke-width="7.5" stroke-linecap="round"/><path d="M141.32152,340.65785c0,0 -8.06459,-6.96827 -8.36747,-4.73758c-0.00515,0.03775 -1.78408,18.70449 -6.16076,19.82594c-5.7916,1.48403 -15.11693,-8.73735 -15.43334,-9.56589c-0.99533,-2.60616 -3.87903,-11.93808 -5.55519,-16.15319c-0.51703,-1.30009 16.08931,-6.84139 29.43178,-9.58157c6.56045,-1.34737 7.62241,18.25022 7.62241,18.25022" fill="#f5b57e" stroke="#000000" stroke-width="7.5" stroke-linecap="round"/><path d="M112.79346,274.96548l-2.50804,-64.00892" fill="none" stroke="#686e62" stroke-width="1.5" stroke-linecap="round"/><path d="M102.52539,220.47261l0.06157,54.98695" fill="none" stroke="#686e62" stroke-width="1.5" stroke-linecap="round"/><path d="M91.20282,298.09217l-0.76378,-14.53318l38.86604,-13.78516l6.94086,15.377z" fill="#484848" stroke="#000000" stroke-width="7.5" stroke-linecap="butt"/><path d="M63.38027,229.91824c0,0 -12.66332,-13.51851 -12.62101,-21.58169c0.04098,-7.80996 12.87102,-26.06199 12.87102,-26.06199h29.36179l0.75,50.39368z" data-paper-data="{&quot;index&quot;:null}" fill="#f5b57e" stroke="none" stroke-width="0" stroke-linecap="butt"/><path d="M62.67322,230.83747v-33.66667h28v33.66667z" fill="#a30000" stroke="#000000" stroke-width="2.5" stroke-linecap="butt"/><g><g fill="#ff6300" stroke="#000000" stroke-width="2.5" stroke-linecap="round"><path d="M79.01968,211.16426l-7.07765,-8.55155l7.1824,-6.95795l6.85321,7.84079z"/><path d="M77.57412,211.05l-3.99551,16.65218l5.32885,30.01449l5.66666,-29.33333l-4,-17.33333" data-paper-data="{&quot;index&quot;:null}"/></g><path d="M80.94412,221.755c0,0.66274 -0.5783,1.2 -1.29167,1.2c-0.71337,0 -1.29167,-0.53726 -1.29167,-1.2c0,-0.66274 0.5783,-1.2 1.29167,-1.2c0.71337,0 1.29167,0.53726 1.29167,1.2z" fill="#ffd7cf" stroke="none" stroke-width="0" stroke-linecap="butt"/><path d="M78.44412,226.255c0,0.66274 -0.57829,1.2 -1.29166,1.2c-0.71337,0 -1.29166,-0.53726 -1.29166,-1.2c0,-0.66274 0.57829,-1.2 1.29166,-1.2c0.71337,0 1.29166,0.53726 1.29166,1.2z" fill="#ffd7cf" stroke="none" stroke-width="0" stroke-linecap="butt"/><path d="M82.81912,227.755c0,0.66274 -0.57829,1.2 -1.29166,1.2c-0.71337,0 -1.29166,-0.53726 -1.29166,-1.2c0,-0.66274 0.57829,-1.2 1.29166,-1.2c0.71337,0 1.29166,0.53726 1.29166,1.2z" fill="#ffd7cf" stroke="none" stroke-width="0" stroke-linecap="butt"/><path d="M79.56912,231.505c0,0.66274 -0.57829,1.2 -1.29166,1.2c-0.71337,0 -1.29166,-0.53726 -1.29166,-1.2c0,-0.66274 0.57829,-1.2 1.29166,-1.2c0.71337,0 1.29166,0.53726 1.29166,1.2z" fill="#ffd7cf" stroke="none" stroke-width="0" stroke-linecap="butt"/><path d="M80.19412,217.255c0,0.66274 -0.57829,1.2 -1.29166,1.2c-0.71337,0 -1.29166,-0.53726 -1.29166,-1.2c0,-0.66274 0.57829,-1.2 1.29166,-1.2c0.71337,0 1.29166,0.53726 1.29166,1.2z" fill="#ffd7cf" stroke="none" stroke-width="0" stroke-linecap="butt"/><path d="M80.69412,236.88c0,0.66274 -0.57829,1.2 -1.29166,1.2c-0.71337,0 -1.29166,-0.53726 -1.29166,-1.2c0,-0.66274 0.57829,-1.2 1.29166,-1.2c0.71337,0 1.29166,0.53726 1.29166,1.2z" fill="#ffd7cf" stroke="none" stroke-width="0" stroke-linecap="butt"/></g><path d="M49.90671,338.97694c0,0 4.12714,-18.67772 1.61937,-40.10356c-1.4877,-12.71051 -10.06757,-28.04283 -10.24058,-36.4988c-0.18705,-9.14326 -8.56774,-29.28793 -8.8484,-40.60683c-0.25744,-10.38143 7.576,-12.36553 7.576,-12.36553c0,0 7.50337,-10.90835 21.08412,-12.87251c1.85235,-0.2679 6.83386,11.52526 10.35796,18.14782c3.53724,6.64724 7.61367,10.87448 7.61367,10.87448c0,0 3.00554,-5.23995 5.141,-11.20306c2.30576,-6.43867 4.98683,-19.58249 8.23024,-19.81703c9.8371,-0.71135 26.12021,13.76696 26.12021,13.76696l-0.99389,130.03973z" data-paper-data="{&quot;index&quot;:null}" fill="#484848" stroke="none" stroke-width="0" stroke-linecap="butt"/><path d="M51.79621,369.02807v-30.95746h66.38305v30.95746z" data-paper-data="{&quot;index&quot;:null}" fill="#131313" stroke="none" stroke-width="0" stroke-linecap="butt"/><path d="M93.47853,185.81747l-0.34043,8.85107c0,0 22.94965,10.25522 25.47075,22.1109c2.52109,11.85564 -4.96358,68.46352 -2.33615,86.68022c2.8324,19.63809 2.68772,50.76078 2.50054,63.02133l0.36302,-11.37332" data-paper-data="{&quot;index&quot;:null}" fill="none" stroke="#000000" stroke-width="7.5" stroke-linecap="round"/><path d="M123.15801,202.11287" data-paper-data="{&quot;index&quot;:null}" fill="none" stroke="#000000" stroke-width="2.5" stroke-linecap="round"/><path d="M76.37059,370.16281l15.95748,0.31917" data-paper-data="{&quot;index&quot;:null}" fill="none" stroke="#000000" stroke-width="2.5" stroke-linecap="round"/><path d="M115.62594,339.02807l-61.59584,-1.27663" data-paper-data="{&quot;index&quot;:null}" fill="none" stroke="#000000" stroke-width="7.5" stroke-linecap="round"/><path d="M49.63175,368.5327c0,0 3.6445,-21.02197 -0.69906,-58.73268c-3.24525,-28.1753 -17.7337,-77.4971 -16.82014,-90.08408c0.99928,-13.76765 27.05114,-24.52394 27.05114,-24.52394v-11.5745" data-paper-data="{&quot;index&quot;:null}" fill="none" stroke="#000000" stroke-width="7.5" stroke-linecap="round"/><path d="M72.3191,183.67065c0,0 -20.19622,-3.62024 -28.409,-21.10911c-7.05693,-15.02759 -2.70847,-43.80432 1.51116,-48.99002c5.94693,-7.30835 31.6195,-12.42395 32.13402,-12.40037c4.02655,0.1847 17.30425,3.01614 22.62187,10.29911c2.19642,3.0082 9.38283,22.67171 9.46754,40.52922c0.06536,13.77411 -6.01381,26.68181 -9.96023,28.75199c-9.68149,5.07861 -26.87956,2.96068 -26.87956,2.96068" data-paper-data="{&quot;index&quot;:null}" fill="#f5b57e" stroke="#000000" stroke-width="7.5" stroke-linecap="round"/><path d="M29.32844,211.00121c0,0 7.33728,-5.23259 11.76678,-2.32757c6.44254,4.22521 9.97907,15.63197 9.92528,17.13739c-0.39669,11.10096 -1.14627,38.61965 -5.88565,53.20183c-6.87634,21.15735 -19.02577,17.53181 -22.34879,13.12449c-8.1728,-10.83953 -8.67515,-45.37266 -7.73261,-52.69601c1.54791,-12.02785 15.43801,-29.38449 15.43801,-29.38449" data-paper-data="{&quot;index&quot;:null}" fill="#484848" stroke="#000000" stroke-width="7.5" stroke-linecap="round"/><path d="M48.07866,321.13302c0,0 -24.46872,6.48531 -25.31214,4.66891c-1.88647,-4.06266 -4.99103,-12.05498 -5.32472,-21.23065c-0.39398,-10.83306 2.76209,-21.88111 4.01673,-21.83922c3.57507,0.11938 8.29047,-3.39739 13.69642,-2.65703c5.40592,0.74032 9.79704,4.51453 10.92017,6.02817c5.50328,7.41684 2.92293,33.93805 2.92293,33.93805" data-paper-data="{&quot;index&quot;:null}" fill="#f5b57e" stroke="#000000" stroke-width="7.5" stroke-linecap="round"/><path d="M57.71713,345.23252c0,0 -7.46903,-7.60309 -7.95294,-5.40456c-0.00822,0.03723 -3.30442,18.49657 -7.75803,19.25712c-5.89347,1.00654 -14.35355,-9.94172 -14.60133,-10.79332c-0.77938,-2.67862 -2.89197,-12.21475 -4.21859,-16.5526c-0.40918,-1.33795 16.59394,-5.50571 30.11552,-7.14803c6.64851,-0.80755 6.10777,18.81134 6.10777,18.81134" data-paper-data="{&quot;index&quot;:null}" fill="#f5b57e" stroke="#000000" stroke-width="7.5" stroke-linecap="round"/><path d="M10.93697,299.02109l0.42466,-14.54703l39.86128,-10.56772l5.66296,15.89208z" data-paper-data="{&quot;index&quot;:null}" fill="#484848" stroke="#000000" stroke-width="7.5" stroke-linecap="butt"/><path d="M87.30581,155.74371l0.30193,-16.00353" data-paper-data="{&quot;index&quot;:null}" fill="none" stroke="#000000" stroke-width="5" stroke-linecap="round"/><path d="M75.61186,139.67736l-0.6039,15.70156" data-paper-data="{&quot;index&quot;:null}" fill="none" stroke="#000000" stroke-width="5" stroke-linecap="round"/><path d="M99.43751,200.96215l-19.73157,37.77087c0,0 -11.86381,-13.85488 -14.01608,-17.44739c-3.062,-5.111 -11.87735,-21.19848 -11.87735,-21.19848l7.375,-3.125c0,0 8.31536,14.83748 11.37735,19.94848c2.15227,3.59251 6.49765,8.67652 6.49765,8.67652l11.5,-28.5z" fill="#a30000" stroke="#000000" stroke-width="2.5" stroke-linecap="round"/><path d="M52.18751,355.04719l1.125,-6.19565l9.125,-7.74457l54.125,1.34239l0.25,11.54883l-25.5,0.41304l-2.375,0.51631l-7.25,2.80442l-2.875,-3.20108l-1.25,0.19014l-1.875,0.10326l-22.25,-0.10326l1.75,0.11964" fill="#181818" stroke="#000000" stroke-width="2.5" stroke-linecap="round"/><path d="" data-paper-data="{&quot;index&quot;:null}" fill="#000000" stroke="#000000" stroke-width="7.5" stroke-linecap="round"/><path d="M47.50746,159.2c0,0 -3,-4.07059 -3,-11.5c0,-7.99489 3,-34.89746 3,-34.89746c0,0 23.54482,-9 33,-9c9.70533,0 20.00113,9 20.00113,9c0,0 6.99981,13.1757 9.03499,25.05491c1.68069,9.81009 -1.53499,21.08848 -1.53499,24.09255c0,2.04005 -7,-0.25 -7,-0.25c0,0 -2.1097,-9.65356 -4.21829,-20.41284c-1.1835,-6.03894 0.37323,-13.28242 -4.37114,-17.27697c-8.14194,-6.85514 -30.62629,-2.8799 -34.60115,-2.8799c-2.94324,0 1.10049,19.88766 -2.33127,26.79054c-3.16165,6.35957 -7.97928,11.27917 -7.97928,11.27917z" fill="#525252" stroke="#000000" stroke-width="7.5" stroke-linecap="butt"/><path d="M92.90746,154.55c0,3.77394 -2.78126,6.83333 -6.21212,6.83333c-3.43086,0 -6.21212,-3.05938 -6.21212,-6.83333c0,-3.77394 2.78126,-6.83334 6.21212,-6.83334c3.43086,0 6.21212,3.05939 6.21212,6.83334z" fill="none" stroke="#000000" stroke-width="2.5" stroke-linecap="butt"/><path d="M79.90746,238.38333l2.33334,100" fill="none" stroke="#000000" stroke-width="2.5" stroke-linecap="round"/></g></g></svg>