<svg version="1.1" xmlns="http://www.w3.org/2000/svg" xmlns:xlink="http://www.w3.org/1999/xlink" width="121.10612" height="285.14144" viewBox="0,0,121.10612,285.14144"><g transform="translate(-6.56628,-133.26022)"><g data-paper-data="{&quot;isPaintingLayer&quot;:true}" fill-rule="nonzero" stroke-linejoin="miter" stroke-miterlimit="10" stroke-dasharray="" stroke-dashoffset="0" style="mix-blend-mode: normal"><path d="M73.00002,414.64766l-50.7016,-3.44829c0,0 2.98346,-28.65652 10.10451,-55.46454c1.76268,-6.63582 11.91452,-13.47128 12.87681,-19.36696c1.76375,-10.80599 -4.01404,-19.28542 -4.86966,-23.226c-1.27787,-5.88532 -10.44639,-19.13474 -11.30525,-24.94959c-0.70145,-4.74911 2.27188,-13.84482 1.60345,-17.76436c-1.16534,-6.83331 -5.8219,-10.92909 -5.59573,-14.04531c0.99928,-13.76765 26.05114,-23.52394 26.05114,-23.52394v-11.5745l34.31484,0.86664l-0.34043,8.85107c0,0 19.28298,2.58855 21.80408,14.44423c0.47194,2.21934 -2.27009,7.6851 -3.12123,13.43941c-1.41844,9.5897 3.83382,22.8964 2.65926,34.92146c-0.44132,4.51821 -7.51545,8.28293 -7.87654,12.43308c-0.05833,0.67035 -0.10744,1.33864 -0.14668,2.00435c-0.39691,6.73379 -0.93419,13.93019 1.63293,19.57527c2.32122,5.10434 7.72778,8.81872 8.18277,11.97333c2.8324,19.63809 12.68772,61.09412 12.50054,73.35467z" data-paper-data="{&quot;index&quot;:null}" fill="#f5b57e" stroke="#000000" stroke-width="7.5" stroke-linecap="round"/><path d="M26.9,408.04766l10.2,-67.4l74,-2.4l6.6,71c0,0 -30.50132,1.58897 -45.79718,1.38682c-14.96351,-0.19776 -45.00282,-2.58682 -45.00282,-2.58682z" fill="#6f8faf" stroke="#000000" stroke-width="1.5" stroke-linecap="butt"/><path d="M54.03026,262.16827v-39.89368h30.96179v39.89368z" data-paper-data="{&quot;index&quot;:null}" fill="#f5b57e" stroke="none" stroke-width="0" stroke-linecap="butt"/><path d="M30.84657,249.49519c4.09541,3.04799 4.63537,22.66701 4.33064,24.14225c-2.24703,10.87838 0.26677,35.41501 -6.8439,48.99959c-10.31689,19.70988 -13.9615,4.03465 -16.50091,-0.86622c-6.2455,-12.05335 -4.46365,-41.91594 -2.31001,-48.97866c1.45292,-4.76485 0.98633,-10.08736 4.79089,-14.68261c0,0 12.4379,-11.66232 16.5333,-8.61434z" fill="#f5b57e" stroke="#000000" stroke-width="7.5" stroke-linecap="round"/><path d="M115.158,242.11287" data-paper-data="{&quot;index&quot;:null}" fill="none" stroke="#000000" stroke-width="2.5" stroke-linecap="round"/><path d="M103.95927,333.69476c0,0 -21.95902,8.71991 -31.26388,9.36633c-8.48462,0.58943 -27.99863,-6.30963 -27.99863,-6.30963" data-paper-data="{&quot;index&quot;:null}" fill="none" stroke="#5b432e" stroke-width="7.5" stroke-linecap="round"/><path d="M53.98576,222.00399c0,0 -9.86289,-1.95358 -18.07567,-19.44245c-7.05693,-15.02759 -2.70847,-43.80432 1.51116,-48.99002c5.94693,-7.30835 31.6195,-12.42395 32.13402,-12.40037c4.02655,0.1847 17.30425,3.01614 22.62187,10.29911c2.19642,3.0082 9.38283,22.67171 9.46754,40.52922c0.06536,13.77411 -6.01381,26.68181 -9.96023,28.75199c-9.68149,5.07861 -26.7129,3.62734 -26.7129,3.62734z" data-paper-data="{&quot;index&quot;:null}" fill="#f5b57e" stroke="#000000" stroke-width="7.5" stroke-linecap="round"/><path d="M40.36081,146.25591c0.09862,-0.05022 12.96164,-8.50856 27.30941,-9.24569c14.83196,-0.762 31.18344,6.22355 32.47557,7.88792c5.80526,7.47764 12.58424,15.0611 9.30132,19.63654c-4.96754,6.92332 -33.1859,7.42252 -57.21124,21.53637c-10.46185,6.14588 -13.43865,21.48889 -20.79123,24.78615c-5.72934,2.56932 -13.5035,-2.00802 -14.2922,-2.13415c-1.2528,-0.20037 -10.56755,-17.02388 -5.16459,-32.21439c5.41482,-15.22383 25.55183,-28.81608 28.37297,-30.25274z" data-paper-data="{&quot;index&quot;:null}" fill="#faf0be" stroke="#000000" stroke-width="7.5" stroke-linecap="round"/><path d="M84.77439,189.2402l-0.30193,16.00353" data-paper-data="{&quot;index&quot;:null}" fill="none" stroke="#1569c7" stroke-width="7.5" stroke-linecap="round"/><path d="M74.50795,205.5456l0.6039,-15.70156" data-paper-data="{&quot;index&quot;:null}" fill="none" stroke="#1569c7" stroke-width="7.5" stroke-linecap="round"/><path d="M72.35469,137.01875l-33.8,63.8c0,0 -2.92449,-28.57144 -0.02016,-35.49239c3.30932,-7.88604 14.22015,-25.50761 14.22015,-25.50761c0,0 12.03168,-3.10849 14.98749,-3.35191c1.37174,-0.11297 4.61251,0.55191 4.61251,0.55191z" fill="#facc7b" stroke="#000000" stroke-width="5" stroke-linecap="round"/><path d="M118.85819,180.79353c0,0 -10.19458,9.68537 -19.85373,10.28702c-10.41795,0.64892 -37.52614,-15.3471 -37.52614,-15.3471l3.70867,15.13108c0,0 -14.1375,-11.8518 -13.99277,-17.05686c0.16142,-5.80533 4.99429,-19.10613 4.99429,-19.10613c0,0 4.54129,6.59264 10.22677,8.95974c5.30624,2.2092 16.30674,7.39015 27.53034,10.95096c12.44145,3.94721 24.91256,6.18129 24.91256,6.18129z" fill="#faf0be" stroke="#000000" stroke-width="5" stroke-linecap="round"/><path d="M52.15469,229.61875l32,2.2" fill="none" stroke="#000000" stroke-width="2.5" stroke-linecap="round"/><path d="M73.15469,235.11876c0,2.26436 -1.70132,4.1 -3.8,4.1c-2.09868,0 -3.8,-1.83563 -3.8,-4.1c0,-2.26436 1.70132,-4.1 3.8,-4.1c2.09868,0 3.8,1.83564 3.8,4.1z" fill="#ff9d00" stroke="#000000" stroke-width="2.5" stroke-linecap="butt"/><path d="M22.96728,303.89526c5.0613,0.66771 15.08719,17.54014 15.53947,18.97702c3.3351,10.59554 17.4798,30.8018 17.88486,46.1295c0.58769,22.23898 -10.22924,10.32302 -14.83385,7.27924c-11.32474,-7.48598 -24.31128,-34.43591 -25.86976,-41.65334c-1.05145,-4.86921 -4.05099,-9.2907 -2.96591,-15.15701c0,0 5.1839,-16.2431 10.24519,-15.57539z" fill="#f5b57e" stroke="#000000" stroke-width="7.5" stroke-linecap="round"/><path d="M62.01796,374.81089c0,0 -7.0745,-3.8857 -6.94613,-2.18572c0.00216,0.02879 1.63612,14.13497 -1.42802,15.65753c-4.05476,2.01489 -12.57733,-4.08081 -12.9427,-4.6444c-1.14924,-1.77273 -4.76045,-8.22817 -6.66832,-11.08494c-0.58846,-0.88113 10.8343,-7.61081 20.2827,-11.74987c4.64573,-2.03518 8.53089,12.3112 8.53089,12.3112" data-paper-data="{&quot;index&quot;:null}" fill="#f5b57e" stroke="#000000" stroke-width="7.5" stroke-linecap="round"/><g data-paper-data="{&quot;index&quot;:null}" fill="#f5b57e" stroke="#000000" stroke-width="7.5" stroke-linecap="round"><path d="M102.59821,240.9952c4.0954,-3.04798 16.5333,8.61434 16.5333,8.61434c3.80456,4.59525 3.33797,9.91776 4.79089,14.68261c2.15364,7.06272 3.93549,36.92531 -2.31001,48.97866c-2.53941,4.90087 -6.18402,20.5761 -16.50091,0.86622c-7.11067,-13.58458 -4.59687,-38.12121 -6.8439,-48.99959c-0.30473,-1.47524 0.23523,-21.09426 4.33064,-24.14225z"/><path d="M103.99639,301.50471c4.41242,-2.56769 15.45871,10.4204 15.45871,10.4204c3.26319,4.99425 2.20052,10.23043 3.10793,15.12853c1.34505,7.26023 -0.24542,37.13362 -7.80783,48.40747c-3.07486,4.58392 -8.46054,19.74935 -16.49356,-0.99645c-5.53656,-14.29856 -0.27716,-38.39637 -1.28557,-49.45853c-0.13675,-1.50016 2.60787,-20.93375 7.0203,-23.50144z"/><path d="M93.89196,380.74847c0,0 -1.9472,-14.73505 3.12403,-14.64862c10.31373,0.17572 23.44808,1.98041 23.24489,3.0203c-0.65877,3.37151 -1.50153,10.72021 -1.87833,12.799c-0.11979,0.66089 -5.63282,9.57146 -10.15095,9.27589c-3.41428,-0.2233 -7.34595,-13.86866 -7.35507,-13.89606c-0.53706,-1.61801 -5.56617,4.6951 -5.56617,4.6951" data-paper-data="{&quot;index&quot;:null}"/></g><path d="M41.07143,322.93339c0,0 0.14535,-1.53974 0.98694,-3.05489c0.82317,-1.48199 2.34336,-2.91573 2.31074,-5.04971c-0.1076,-7.03674 -11.50378,-13.75278 -11.34046,-21.43886c0.18581,-8.74395 -0.27168,-17.2611 -0.42332,-20.39656c-0.12371,-2.55795 -4.39104,-4.41713 -4.39104,-4.41713c0,0 7.3477,-5.68816 11.8916,-5.66331c4.74876,0.02597 14.81726,0.44571 26.38212,-0.45245c4.73372,-0.36763 10.20373,-2.22457 14.90119,-2.43158c8.43353,-0.37166 16.67317,0.49533 21.43375,0.52137c2.98013,0.0163 6.31991,2.74026 6.31991,2.74026c0,0 -2.52996,2.8259 -2.55859,6.00397c-0.08831,9.80221 -0.06501,16.82933 0.01597,24.67245c0.04417,4.27815 -6.75163,3.94194 -6.68187,9.28846c0.03888,2.98014 -1.21287,7.09669 -0.74131,10.13139c0.51327,3.30313 2.75152,5.40372 2.75152,5.40372c0,0 -2.2523,1.8435 -4.24238,2.21897c-1.98641,0.37477 -3.70838,-0.71941 -6.08438,0.26241c-2.39242,0.98861 -3.72518,3.94467 -5.76244,4.1559c-7.25809,0.75252 -15.77536,1.21184 -23.34328,0.7083c-7.37194,-0.4905 -13.84307,-1.93843 -17.37204,-1.66396c-3.77757,0.29381 -4.05262,-1.53876 -4.05262,-1.53876z" fill="#f3fffe" stroke="#000000" stroke-width="1.5" stroke-linecap="butt"/><path d="M31.96428,272.82625l9.71429,-4.42857l32.42858,0.71429l10.42857,-3.71429c0,0 3.05139,-0.67022 4.57258,-0.64717c1.61595,0.02448 4.856,0.79003 4.856,0.79003c0,0 6.25175,0.98086 8.43815,1.68453c1.92239,0.6187 3.99042,2.31547 3.99042,2.31547" fill="none" stroke="#000000" stroke-width="1.5" stroke-linecap="round"/><path d="M72.96429,271.11195c0,1.34126 -1.08731,2.42857 -2.42857,2.42857c-1.34127,0 -2.42857,-1.08731 -2.42857,-2.42857c0,-1.34126 1.0873,-2.42857 2.42857,-2.42857c1.34127,0 2.42857,1.08731 2.42857,2.42857z" fill="#f3fffe" stroke="#000000" stroke-width="1.5" stroke-linecap="butt"/><path d="M68.53572,272.64765c0,0 -0.78853,4.93914 -1.15523,6.98221c-0.26966,1.50236 -0.84477,3.91065 -0.84477,3.91065c0,0 -1.41451,2.9507 -3.15143,4.99271c-1.44285,1.69628 -2.95529,2.82983 -3.13429,2.86443c-0.71609,0.13842 -2.2015,-3.81038 -1.94351,-8.86883c0.17696,-3.46951 1.93145,-7.35831 2.52742,-8.68269c1.53211,-3.40468 7.70181,-1.19847 7.70181,-1.19847z" fill="none" stroke="#000000" stroke-width="1.5" stroke-linecap="round"/><path d="M35.66667,264.45718l2.80953,5.51191" fill="none" stroke="#000000" stroke-width="0.5" stroke-linecap="round"/><path d="M73.39286,274.39768c0,0 0.99537,2.4005 1.64182,4.83848c0.68061,2.56683 1.00543,5.04785 0.6439,5.59009c-0.41408,0.62105 -2.41883,1.37199 -4.14285,1.42857c-1.72402,0.05658 -4.79433,-2.23757 -4.85715,-3.42857c-0.06282,-1.191 0.97642,-5.2843 1.60207,-6.90058c0.47544,-1.22821 1.8265,-1.95656 1.8265,-1.95656z" fill="none" stroke="#000000" stroke-width="1.5" stroke-linecap="round"/><path d="" fill="none" stroke="#000000" stroke-width="0.5" stroke-linecap="round"/><path d="M72.70554,272.56192c0,0 3.29571,-1.73288 5.25267,1.44667c0.76123,1.23681 5.57236,3.86789 6.19373,7.28589c0.90593,4.98334 -0.05968,9.0903 -0.78762,9.04506c-0.18196,-0.01131 -1.82754,-0.94109 -3.47642,-2.43788c-1.98494,-1.80186 -3.76693,-4.54631 -3.76693,-4.54631c0,0 -0.87984,-2.31441 -1.34033,-3.76965c-0.62623,-1.979 -2.0751,-7.02377 -2.0751,-7.02377z" data-paper-data="{&quot;index&quot;:null}" fill="none" stroke="#000000" stroke-width="1.5" stroke-linecap="round"/><path d="M62.59524,279.20782l5.5,-6.16666" fill="none" stroke="#000000" stroke-width="1" stroke-linecap="round"/><path d="M73.92857,272.45782c0,0 2.89527,3.28694 4.00765,4.88599c1.10984,1.59538 2.65903,4.69735 2.65903,4.69735" fill="none" stroke="#000000" stroke-width="1" stroke-linecap="round"/><path d="M44.59524,263.04115l0.08333,5.16666" fill="none" stroke="#000000" stroke-width="0.5" stroke-linecap="round"/><path d="M51.84524,263.12449l-0.16667,5.25" fill="none" stroke="#000000" stroke-width="0.5" stroke-linecap="round"/><path d="M60.76191,263.12449l-0.25,5.58333" fill="none" stroke="#000000" stroke-width="0.5" stroke-linecap="round"/><path d="M66.84524,262.62449l0.41666,6.08333" fill="none" stroke="#000000" stroke-width="0.5" stroke-linecap="round"/><path d="M74.01191,261.04115l2.83334,6.75" fill="none" stroke="#000000" stroke-width="0.5" stroke-linecap="round"/><path d="M83.92857,260.12448l1.33334,4.66667" fill="none" stroke="#000000" stroke-width="0.5" stroke-linecap="round"/><path d="M92.84524,260.37449v5" fill="none" stroke="#000000" stroke-width="0.5" stroke-linecap="round"/><path d="M99.92857,260.87448l-1.41666,5.16667" fill="none" stroke="#000000" stroke-width="0.5" stroke-linecap="round"/><path d="M93.59524,266.12449l0.83333,32l-7.83333,18.83333" fill="none" stroke="#000000" stroke-width="1.5" stroke-linecap="round"/><path d="M98.26191,313.29114c0,0 -1.85949,0.98573 -3.64901,1.48053c-3.2795,0.90677 -14.43433,3.51948 -14.43433,3.51948l-21.33333,0.16666l-14.08334,-2.33333" fill="none" stroke="#000000" stroke-width="1.5" stroke-linecap="round"/><path d="M58.42857,317.37447l-11.33333,-27.16667l0.16667,-21.16666" fill="none" stroke="#000000" stroke-width="1.5" stroke-linecap="round"/><path d="M66.9,346.34766v-6.6h8.4v6.6z" fill="#5b432e" stroke="#000000" stroke-width="1.5" stroke-linecap="butt"/><path d="M71.3,332.74767c0,0.44183 -0.3134,0.8 -0.7,0.8c-0.3866,0 -0.7,-0.35817 -0.7,-0.8c0,-0.44183 0.3134,-0.8 0.7,-0.8c0.3866,0 0.7,0.35817 0.7,0.8z" fill="#5b432e" stroke="#000000" stroke-width="1.5" stroke-linecap="butt"/><path d="M76.9,414.74767l-3.8,-67.6" fill="none" stroke="#000000" stroke-width="1.5" stroke-linecap="round"/><path d="M83.5,344.94767l0.8,40.8l-8.6,7.4" fill="none" stroke="#000000" stroke-width="1.5" stroke-linecap="round"/></g></g></svg>