<svg version="1.1" xmlns="http://www.w3.org/2000/svg" xmlns:xlink="http://www.w3.org/1999/xlink" width="132.32795" height="239.50202" viewBox="0,0,132.32795,239.50202"><g transform="translate(-7.62412,-128.55)"><g data-paper-data="{&quot;isPaintingLayer&quot;:true}" fill-rule="nonzero" stroke-linejoin="miter" stroke-miterlimit="10" stroke-dasharray="" stroke-dashoffset="0" style="mix-blend-mode: normal"><path d="M44.73626,361.56824c1.76268,-6.63582 -1.41882,-26.30461 -0.45652,-32.20029c1.76375,-10.80599 -4.01404,-19.28542 -4.86966,-23.226c-1.27787,-5.88532 -10.44639,-19.13474 -11.30525,-24.94959c-0.70145,-4.74911 2.27188,-13.84482 1.60345,-17.76436c-1.16534,-6.83331 -5.8219,-10.92909 -5.59573,-14.04531c0.99928,-13.76765 26.05114,-23.52394 26.05114,-23.52394v-11.5745l34.31484,0.86664l-0.34043,8.85107c0,0 19.28298,2.58855 21.80408,14.44423c0.47194,2.21934 -2.27009,7.6851 -3.12123,13.43941c-1.41844,9.5897 3.83382,22.8964 2.65926,34.92146c-0.44132,4.51821 -7.51545,8.28293 -7.87654,12.43308c-0.05833,0.67035 -0.10744,1.33864 -0.14668,2.00435c-0.39691,6.73379 -3.63929,27.72733 -3.1843,30.88194c1.24363,8.62254 8.18737,32.03111 2.59021,32.17559c-7.08478,0.18288 -20.81838,1.00207 -31.28491,0.4561c-15.66445,-0.8171 -20.84173,-3.18988 -20.84173,-3.18988z" data-paper-data="{&quot;index&quot;:null}" fill="#1c0c00" stroke="#000000" stroke-width="7.5" stroke-linecap="round"/><path d="M90.58282,233.09506c0,0 4.51946,-5.17207 8.31558,-3.79786c5.52131,1.99872 10.15225,9.83446 10.37744,10.96024c1.66051,8.30154 5.95016,28.83945 5.00341,40.48707c-1.37362,16.89959 -11.02116,16.35042 -14.26132,13.66738c-7.969,-6.59876 -14.42211,-32.11764 -15.01269,-37.71409c-0.97005,-9.19156 6.27372,-24.5078 6.27372,-24.5078" data-paper-data="{&quot;index&quot;:null}" fill="#f4d9be" stroke="#000000" stroke-width="7.5" stroke-linecap="round"/><path d="M123.87869,311.4595c0,0 -17.00235,9.1175 -17.9476,7.9191c-2.11423,-2.68041 -5.82364,-8.0603 -7.68673,-14.80558c-2.19964,-7.96366 -1.80465,-16.71184 -0.86693,-16.90169c2.67204,-0.54098 5.54941,-3.97906 9.68845,-4.38194c4.139,-0.4029 8.05971,1.6226 9.15907,2.54725c5.3868,4.53079 8.14326,24.6514 8.14326,24.6514" data-paper-data="{&quot;index&quot;:null}" fill="#ae8c6e" stroke="#000000" stroke-width="7.5" stroke-linecap="round"/><path d="M135.26934,327.63284c0,0 -6.87726,-4.32276 -6.84897,-2.60728c0.00046,0.02906 0.80656,14.2976 -2.36201,15.64576c-4.19295,1.78411 -12.39413,-4.8447 -12.72781,-5.43256c-1.04958,-1.84904 -4.29525,-8.54838 -6.04279,-11.53143c-0.53901,-0.92008 11.33545,-7.00452 21.07292,-10.60323c4.78787,-1.7695 7.8414,12.8737 7.8414,12.8737" data-paper-data="{&quot;index&quot;:null}" fill="#ae8c6e" stroke="#000000" stroke-width="7.5" stroke-linecap="round"/><path d="M53.03027,255.16834v-39.89368h30.96179v39.89368z" data-paper-data="{&quot;index&quot;:null}" fill="#ae8c6e" stroke="none" stroke-width="0" stroke-linecap="butt"/><path d="M43.83334,327.4319c0,0 -13.60037,-74.63291 -11.14034,-87.09351c1.38876,-7.03439 18.47367,-11.90649 18.47367,-11.90649l14.99646,14.71342c0,0 17.09207,-15.59686 18.42205,-16.18868c8.69624,-3.86966 14.91483,7.14192 14.91483,7.14192l-3,95z" fill="#f4d9be" stroke="#000000" stroke-width="2.5" stroke-linecap="butt"/><path d="M114.15801,235.11294" data-paper-data="{&quot;index&quot;:null}" fill="none" stroke="#000000" stroke-width="2.5" stroke-linecap="round"/><path d="M52.98577,215.5683c0,0 -9.86289,-1.52414 -18.07567,-15.16852c-7.05693,-11.72415 -2.70847,-34.17504 1.51116,-38.22079c5.94693,-5.70179 31.6195,-9.69286 32.13402,-9.67446c4.02655,0.1441 17.30425,2.35312 22.62187,8.03511c2.19642,2.34692 9.38283,17.6879 9.46754,31.61989c0.06536,10.74622 -6.01381,20.81648 -9.96023,22.43158c-9.68149,3.96221 -26.7129,2.82996 -26.7129,2.82996z" data-paper-data="{&quot;index&quot;:null}" fill="#ae8c6e" stroke="#000000" stroke-width="7.5" stroke-linecap="round"/><path d="M34.66668,257.45725l2.80953,5.51191" fill="none" stroke="#000000" stroke-width="0.5" stroke-linecap="round"/><path d="" fill="none" stroke="#000000" stroke-width="0.5" stroke-linecap="round"/><path d="M97.51192,259.0412l1.41666,-5.16667" fill="none" stroke="#000000" stroke-width="0.5" stroke-linecap="round"/><path d="M92.83335,227.22144l-18.83334,19.08333l-6.16667,0.91667l-20.66667,-14.33334l-2,-2.33333l5,-2.33333l18.66667,12l16,-14.33334z" fill="#f4d9be" stroke="#000000" stroke-width="2.5" stroke-linecap="round"/><path d="M22.51749,242.9054c0,0 5.5921,-3.98801 8.96804,-1.77396c4.91017,3.22024 7.60553,11.91388 7.56453,13.06124c-0.30233,8.46058 -0.87363,29.43391 -4.48574,40.5477c-5.24079,16.12505 -14.50046,13.36184 -17.03309,10.00281c-6.22889,-8.26133 -6.61176,-34.5807 -5.8934,-40.16218c1.17973,-9.16701 11.76606,-22.39535 11.76606,-22.39535" data-paper-data="{&quot;index&quot;:null}" fill="#f4d9be" stroke="#000000" stroke-width="7.5" stroke-linecap="round"/><path d="M36.80794,326.84218c0,0 -18.6488,4.94277 -19.29161,3.5584c-1.43777,-3.09635 -3.8039,-9.18768 -4.05822,-16.1809c-0.30027,-8.2564 2.10513,-16.67665 3.06135,-16.64473c2.72473,0.09098 6.31857,-2.58932 10.4387,-2.02506c4.12012,0.56423 7.4668,3.44074 8.32279,4.59436c4.19432,5.65274 2.22771,25.86584 2.22771,25.86584" data-paper-data="{&quot;index&quot;:null}" fill="#ae8c6e" stroke="#000000" stroke-width="7.5" stroke-linecap="round"/><path d="M44.15388,345.20959c0,0 -5.69251,-5.79468 -6.06132,-4.11908c-0.00626,0.02837 -2.51846,14.09714 -5.91277,14.67679c-4.4917,0.76713 -10.93954,-7.57707 -11.12838,-8.22612c-0.594,-2.0415 -2.20411,-9.30945 -3.21519,-12.61553c-0.31186,-1.01972 12.64705,-4.19618 22.9525,-5.44787c5.06715,-0.61548 4.65502,14.33704 4.65502,14.33704" data-paper-data="{&quot;index&quot;:null}" fill="#ae8c6e" stroke="#000000" stroke-width="7.5" stroke-linecap="round"/><path d="M34.02499,192.84424c-0.31058,-6.21155 2.91122,-21.67866 14.11163,-30.92103c6.2799,-5.18208 14.05078,-7.90421 20.95341,-9.02917c5.40845,-0.88144 10.28384,-0.78233 13.49135,-0.1177c7.99289,1.65618 14.04317,9.25856 9.13525,14.33498c-0.82028,0.84844 -7.94552,2.45375 -9.71876,4.80183c-4.74428,6.28225 -20.44498,12.12902 -21.08792,12.76536c-0.05866,0.05803 -13.57581,11.07719 -20.45171,15.84414c-8.65282,5.99884 -6.12268,-1.46685 -6.43325,-7.67837z" fill="#000000" stroke="#000000" stroke-width="7.5" stroke-linecap="butt"/><path d="M69.69885,147.8c0,8.56042 -7.2837,15.5 -16.2686,15.5c-8.9849,0 -16.2686,-6.93959 -16.2686,-15.5c0,-8.56041 7.2837,-15.5 16.2686,-15.5c8.98489,0 16.2686,6.93958 16.2686,15.5z" fill="#000000" stroke="#000000" stroke-width="7.5" stroke-linecap="butt"/><path d="M45.36553,170.46668c0,8.56042 -7.2837,15.5 -16.2686,15.5c-8.98489,0 -16.26859,-6.93958 -16.26859,-15.5c0,-8.56042 7.2837,-15.5 16.26859,-15.5c8.98489,0 16.2686,6.93958 16.2686,15.5z" fill="#000000" stroke="#000000" stroke-width="7.5" stroke-linecap="butt"/><path d="M85.96463,201.24894l0.66667,-15.56718" fill="none" stroke="#543d00" stroke-width="7.5" stroke-linecap="round"/><path d="M76.89489,186.12309v14.08377" fill="none" stroke="#543d00" stroke-width="7.5" stroke-linecap="round"/></g></g></svg>