<svg version="1.1" xmlns="http://www.w3.org/2000/svg" xmlns:xlink="http://www.w3.org/1999/xlink" width="247.57375" height="254.21331" viewBox="0,0,247.57375,254.21331"><g transform="translate(-3.37833,-128.83871)"><g data-paper-data="{&quot;isPaintingLayer&quot;:true}" fill-rule="nonzero" stroke-linejoin="miter" stroke-miterlimit="10" stroke-dasharray="" stroke-dashoffset="0" style="mix-blend-mode: normal"><g stroke="#000000" stroke-width="7.5" stroke-linecap="round"><path d="M90.72899,235.53501c0,0 7.37951,-3.57586 11.86156,-1.55682c6.51891,2.93658 10.93073,11.95213 11.01762,13.18277c0.6404,9.07517 2.45052,31.55371 -0.72283,43.80597c-4.60429,17.77682 -16.49957,15.77679 -20.06632,12.44698c-8.77222,-8.18945 -12.4171,-36.28439 -12.19164,-42.32476c0.37025,-9.9207 11.99813,-25.15163 11.99813,-25.15163" fill="#3e3e3e"/><g fill="#ffcb90"><path d="M119.54297,326.89862c0,0 -21.9932,8.64925 -23.08426,7.30226c-2.44042,-3.01279 -6.6698,-9.0245 -8.48194,-16.37771c-2.13948,-8.68147 -0.96961,-18.03234 0.21924,-18.17385c3.38756,-0.40326 7.25577,-3.89828 12.46953,-4.05658c5.21375,-0.15833 9.96669,2.27186 11.27184,3.3356c6.39528,5.2124 8.2935,26.96135 8.2935,26.96135"/><path d="M132.86895,344.63318c0,0 -8.27755,-5.08797 -8.37463,-3.24728c-0.00167,0.03117 -0.09383,15.37854 -4.16538,16.61424c-5.38788,1.63518 -15.14517,-6.01198 -15.51763,-6.66415c-1.17145,-2.05136 -4.7183,-9.44666 -6.67619,-12.75957c-0.60387,-1.02181 14.7343,-6.75887 27.20477,-9.97278c6.13166,-1.58027 8.82474,14.3172 8.82474,14.3172"/></g></g><path d="M54.32128,249.63522v-38.14352h28.07365v38.14352z" fill="#ffcb90" stroke="none" stroke-width="0" stroke-linecap="butt"/><path d="M41.19992,339.24678c0,0 3.94608,-14.85886 1.54832,-31.904c-1.42244,-10.11172 -9.62591,-22.3092 -9.79134,-29.03627c-0.34291,-13.94522 -1.21659,-42.14166 -1.21659,-42.14166c0,0 3.52271,-7.84051 16.50766,-9.40308c3.54879,-0.42706 15.61015,13.44457 22.74696,13.8977c2.6306,0.16701 5.34802,-11.39806 8.03661,-11.41983c3.35103,-0.02711 2.8421,-3.72373 5.94322,-3.91031c9.40556,-0.56589 21.86689,9.95775 21.86689,9.95775l-0.95031,103.45187z" fill="#3d260b" stroke="none" stroke-width="0" stroke-linecap="butt"/><path d="M44.00638,371.05224v-29.59936h63.47081v29.59936z" fill="#1c2436" stroke="none" stroke-width="0" stroke-linecap="butt"/><path d="M63.30171,272.82875l-9.61061,14.04629l-9.46276,-12.8388l9.61061,-14.53913z" fill="#2e1b00" stroke="#000000" stroke-width="2.5" stroke-linecap="round"/><path d="M63.30171,301.11699l-9.61061,14.04629l-9.46276,-12.8388l9.61061,-14.53914z" fill="#2e1b00" stroke="#000000" stroke-width="2.5" stroke-linecap="round"/><path d="M63.30171,330.22517c0,0 -2.82704,4.13182 -4.34488,6.3502c-1.67096,2.44218 -9.21542,2.33727 -10.914,0.03269c-1.39588,-1.89389 -3.8145,-5.1754 -3.8145,-5.1754l9.61061,-14.53913z" fill="#2e1b00" stroke="#000000" stroke-width="2.5" stroke-linecap="round"/><path d="M83.80043,272.0088l-9.61061,14.04629l-9.46276,-12.8388l9.61062,-14.53913z" fill="#212121" stroke="#000000" stroke-width="2.5" stroke-linecap="round"/><path d="M83.80043,300.29705l-9.61061,14.04629l-9.46276,-12.8388l9.61062,-14.53913z" fill="#212121" stroke="#000000" stroke-width="2.5" stroke-linecap="round"/><path d="M83.80043,329.40522c0,0 -2.82704,4.13183 -4.34487,6.3502c-1.67096,2.44218 -9.21542,2.33727 -10.914,0.03269c-1.39588,-1.89389 -3.8145,-5.1754 -3.8145,-5.1754l9.61062,-14.53913z" fill="#212121" stroke="#000000" stroke-width="2.5" stroke-linecap="round"/><path d="M102.65926,272.41878l-9.61062,14.04629l-9.46275,-12.8388l9.61061,-14.53913z" fill="#2e1b00" stroke="#000000" stroke-width="2.5" stroke-linecap="round"/><path d="M102.65926,300.70702l-9.61062,14.04628l-9.46275,-12.8388l9.61061,-14.53913z" fill="#2e1b00" stroke="#000000" stroke-width="2.5" stroke-linecap="round"/><path d="M102.65926,329.81521c0,0 -2.82703,4.13182 -4.34487,6.3502c-1.67096,2.44218 -9.21542,2.33727 -10.91401,0.03269c-1.39588,-1.89389 -3.81449,-5.1754 -3.81449,-5.1754l9.61061,-14.53913z" fill="#2e1b00" stroke="#000000" stroke-width="2.5" stroke-linecap="round"/><path d="M82.86022,214.87916l-0.32549,8.46278c0,0 21.94281,9.80534 24.35332,21.14089c2.4105,11.33555 -4.74581,65.46001 -2.23365,82.87755c2.70813,18.77658 3.23646,32.53389 3.05752,44.25657" fill="none" stroke="#000000" stroke-width="7.5" stroke-linecap="round"/><path d="M111.23754,230.45972" fill="none" stroke="#000000" stroke-width="2.5" stroke-linecap="round"/><path d="M68.50278,362.05224l15.2574,0.30515" fill="none" stroke="#000000" stroke-width="7.5" stroke-linecap="round"/><path d="M46.14239,339.48106l58.89363,1.2206" fill="none" stroke="#000000" stroke-width="7.5" stroke-linecap="round"/><path d="M42.60355,371.57861c0,0 1.81798,-2.09975 -2.33503,-38.15606c-3.1029,-26.93928 -16.95574,-74.09727 -16.08225,-86.13208c0.95544,-13.16366 25.86438,-23.44807 25.86438,-23.44807v-11.06672" fill="none" stroke="#000000" stroke-width="7.5" stroke-linecap="round"/><path d="M68.14003,215.84324c0,0 -24.15473,-2.00625 -32.68404,-18.39297c-7.32892,-14.08054 0.88357,-42.86848 4.71209,-47.98741c6.01578,-8.04338 24.3095,-13.3512 29.08733,-13.32752c3.85392,0.01907 17.77581,2.43051 23.14051,9.18037c3.92507,4.93851 15.96076,36.02283 10.53558,49.92649c-7.34348,18.81982 -33.67683,20.78842 -33.67683,20.78842" fill="#ffcb90" stroke="#000000" stroke-width="7.5" stroke-linecap="round"/><path d="M88.63129,174.68175v16.90052" fill="none" stroke="#000000" stroke-width="7.5" stroke-linecap="round"/><path d="M78.56155,192.0236v-16.90052" fill="none" stroke="#000000" stroke-width="7.5" stroke-linecap="round"/><path d="M31.58701,176.6622c-0.33724,-6.74482 3.16115,-23.53982 15.32314,-33.57567c12.162,-10.03588 29.47395,-11.57491 37.40191,-9.93215c8.67909,1.79837 15.2488,10.05343 9.91953,15.56567c-0.8907,0.92128 -3.08951,13.78309 -4.82748,14.16103c-2.08527,0.45346 -3.80018,-11.49662 -5.72565,-8.94695c-5.15158,6.8216 -9.29715,20.3646 -14.45631,24.14536c-0.92138,0.67521 -7.74392,-10.97504 -8.44205,-10.28407c-0.06369,0.06301 -14.74132,12.02819 -22.20754,17.20439c-9.39569,6.51386 -6.64832,-1.59279 -6.98556,-8.33758z" fill="#1d0d00" stroke="#000000" stroke-width="7.5" stroke-linecap="butt"/><g stroke="#000000" stroke-width="7.5" stroke-linecap="round"><path d="M20.03893,244.11445c0,0 6.85116,-4.21338 11.17332,-2.08464c6.2864,3.09618 10.01616,11.79778 10.01099,12.95903c-0.03837,8.56331 0.08996,29.78553 -3.99157,41.13867c-5.92192,16.47232 -17.64359,13.97946 -20.95448,10.66577c-8.14295,-8.1498 -9.68298,-34.74579 -9.00706,-40.4119c1.11008,-9.30598 13.85122,-23.02338 13.85122,-23.02338" fill="#3e3e3e"/><path d="M41.33754,328.50909c0,0 -23.18416,5.60259 -24.0459,4.22392c-1.9275,-3.08368 -5.13965,-9.16507 -5.74018,-16.22683c-0.70904,-8.33735 1.96794,-16.9282 3.1682,-16.92697c3.42013,0.00352 7.81837,-2.8229 13.00723,-2.38624c5.18886,0.43665 9.50102,3.2361 10.62077,4.37459c5.48681,5.57862 3.83496,26.07756 3.83496,26.07756" fill="#ffcb90"/><path d="M51.28818,346.83969c0,0 -7.37102,-5.67347 -7.76602,-3.96748c-0.00671,0.02888 -2.59008,14.33372 -6.82277,15.02998c-5.60111,0.92138 -14.02194,-7.3051 -14.28486,-7.95513c-0.82701,-2.04465 -3.13856,-9.34013 -4.53949,-12.64969c-0.43212,-1.02076 15.68879,-4.65292 28.56006,-6.25299c6.32875,-0.78677 6.41421,14.34333 6.41421,14.34333" fill="#ffcb90"/></g><path d="M63.30171,246.32875l-9.61061,14.04629l-9.46276,-12.8388l9.61061,-14.53913z" fill="#2e1b00" stroke="#000000" stroke-width="2.5" stroke-linecap="round"/><path d="M83.80043,245.5088l-9.61061,14.04629l-9.46276,-12.8388l10.61062,-12.03913z" fill="#212121" stroke="#000000" stroke-width="2.5" stroke-linecap="round"/><path d="M92.43751,226.46215l-19.73157,28.27087l-27.39343,-29.14587l7.375,-2.125l17.375,18.125l13.5,-19z" fill="#000000" stroke="#000000" stroke-width="2.5" stroke-linecap="round"/><path d="M103.15926,244.91878l-9.61062,14.04629l-9.46275,-12.8388l9.61061,-14.53913z" fill="#2e1b00" stroke="#000000" stroke-width="2.5" stroke-linecap="round"/><path d="M155.73626,376.56824c1.76268,-6.63582 -1.41882,-26.30461 -0.45652,-32.20029c1.76375,-10.80599 -4.01404,-19.28542 -4.86966,-23.226c-1.27787,-5.88532 -10.44639,-19.13474 -11.30525,-24.94959c-0.70145,-4.74911 2.27188,-13.84482 1.60345,-17.76436c-1.16534,-6.83331 -5.8219,-10.92909 -5.59573,-14.04531c0.99928,-13.76765 26.05114,-23.52394 26.05114,-23.52394v-11.5745l34.31484,0.86664l-0.34043,8.85107c0,0 19.28298,2.58855 21.80408,14.44423c0.47194,2.21934 -2.27009,7.6851 -3.12123,13.43941c-1.41844,9.5897 3.83382,22.8964 2.65926,34.92146c-0.44132,4.51821 -7.51545,8.28293 -7.87654,12.43308c-0.05833,0.67035 -0.10744,1.33864 -0.14668,2.00435c-0.39691,6.73379 -3.63929,27.72733 -3.1843,30.88194c1.24363,8.62254 8.18737,32.03111 2.59021,32.17559c-7.08478,0.18288 -20.81838,1.00207 -31.28491,0.4561c-15.66445,-0.8171 -20.84173,-3.18988 -20.84173,-3.18988z" data-paper-data="{&quot;index&quot;:null}" fill="#1c0c00" stroke="#000000" stroke-width="7.5" stroke-linecap="round"/><path d="M201.58282,248.09506c0,0 4.51946,-5.17207 8.31558,-3.79786c5.52131,1.99872 10.15225,9.83446 10.37744,10.96024c1.66051,8.30154 5.95016,28.83945 5.00341,40.48707c-1.37362,16.89959 -11.02116,16.35042 -14.26132,13.66738c-7.969,-6.59876 -14.42211,-32.11764 -15.01269,-37.71409c-0.97005,-9.19156 6.27372,-24.5078 6.27372,-24.5078" data-paper-data="{&quot;index&quot;:null}" fill="#f4d9be" stroke="#000000" stroke-width="7.5" stroke-linecap="round"/><path d="M234.87869,326.4595c0,0 -17.00235,9.1175 -17.9476,7.9191c-2.11423,-2.68041 -5.82364,-8.0603 -7.68673,-14.80558c-2.19964,-7.96366 -1.80465,-16.71184 -0.86693,-16.90169c2.67204,-0.54098 5.54941,-3.97906 9.68845,-4.38194c4.139,-0.4029 8.05971,1.6226 9.15907,2.54725c5.3868,4.53079 8.14326,24.6514 8.14326,24.6514" data-paper-data="{&quot;index&quot;:null}" fill="#ae8c6e" stroke="#000000" stroke-width="7.5" stroke-linecap="round"/><path d="M246.26934,342.63284c0,0 -6.87726,-4.32276 -6.84897,-2.60728c0.00046,0.02906 0.80656,14.2976 -2.36201,15.64576c-4.19295,1.78411 -12.39413,-4.8447 -12.72781,-5.43256c-1.04958,-1.84904 -4.29525,-8.54838 -6.04279,-11.53143c-0.53901,-0.92008 11.33545,-7.00452 21.07292,-10.60323c4.78787,-1.7695 7.8414,12.8737 7.8414,12.8737" data-paper-data="{&quot;index&quot;:null}" fill="#ae8c6e" stroke="#000000" stroke-width="7.5" stroke-linecap="round"/><path d="M164.03027,270.16834v-39.89368h30.96179v39.89368z" data-paper-data="{&quot;index&quot;:null}" fill="#ae8c6e" stroke="none" stroke-width="0" stroke-linecap="butt"/><path d="M154.83334,342.4319c0,0 -13.60037,-74.63291 -11.14034,-87.09351c1.38876,-7.03439 18.47367,-11.90649 18.47367,-11.90649l14.99646,14.71342c0,0 17.09207,-15.59686 18.42205,-16.18868c8.69624,-3.86966 14.91483,7.14192 14.91483,7.14192l-3,95z" fill="#f4d9be" stroke="#000000" stroke-width="2.5" stroke-linecap="butt"/><path d="M225.15801,250.11294" data-paper-data="{&quot;index&quot;:null}" fill="none" stroke="#000000" stroke-width="2.5" stroke-linecap="round"/><path d="M163.98577,230.5683c0,0 -9.86289,-1.52414 -18.07567,-15.16852c-7.05693,-11.72415 -2.70847,-34.17504 1.51116,-38.22079c5.94693,-5.70179 31.6195,-9.69286 32.13402,-9.67446c4.02655,0.1441 17.30425,2.35312 22.62187,8.03511c2.19642,2.34692 9.38283,17.6879 9.46754,31.61989c0.06536,10.74622 -6.01381,20.81648 -9.96023,22.43158c-9.68149,3.96221 -26.7129,2.82996 -26.7129,2.82996z" data-paper-data="{&quot;index&quot;:null}" fill="#ae8c6e" stroke="#000000" stroke-width="7.5" stroke-linecap="round"/><path d="M145.66668,272.45725l2.80953,5.51191" fill="none" stroke="#000000" stroke-width="0.5" stroke-linecap="round"/><path d="" fill="none" stroke="#000000" stroke-width="0.5" stroke-linecap="round"/><path d="M208.51192,274.0412l1.41666,-5.16667" fill="none" stroke="#000000" stroke-width="0.5" stroke-linecap="round"/><path d="M203.83335,242.22144l-18.83334,19.08333l-6.16667,0.91667l-20.66667,-14.33334l-2,-2.33333l5,-2.33333l18.66667,12l16,-14.33334z" fill="#f4d9be" stroke="#000000" stroke-width="2.5" stroke-linecap="round"/><path d="M133.51749,257.9054c0,0 5.5921,-3.98801 8.96804,-1.77396c4.91017,3.22024 7.60553,11.91388 7.56453,13.06124c-0.30233,8.46058 -0.87363,29.43391 -4.48574,40.5477c-5.24079,16.12505 -14.50046,13.36184 -17.03309,10.00281c-6.22889,-8.26133 -6.61176,-34.5807 -5.8934,-40.16218c1.17973,-9.16701 11.76606,-22.39535 11.76606,-22.39535" data-paper-data="{&quot;index&quot;:null}" fill="#f4d9be" stroke="#000000" stroke-width="7.5" stroke-linecap="round"/><path d="M147.80794,341.84218c0,0 -18.6488,4.94277 -19.29161,3.5584c-1.43777,-3.09635 -3.8039,-9.18768 -4.05822,-16.1809c-0.30027,-8.2564 2.10513,-16.67665 3.06135,-16.64473c2.72473,0.09098 6.31857,-2.58932 10.4387,-2.02506c4.12012,0.56423 7.4668,3.44074 8.32279,4.59436c4.19432,5.65274 2.22771,25.86584 2.22771,25.86584" data-paper-data="{&quot;index&quot;:null}" fill="#ae8c6e" stroke="#000000" stroke-width="7.5" stroke-linecap="round"/><path d="M155.15388,360.20959c0,0 -5.69251,-5.79468 -6.06132,-4.11908c-0.00626,0.02837 -2.51846,14.09714 -5.91277,14.67679c-4.4917,0.76713 -10.93954,-7.57707 -11.12838,-8.22612c-0.594,-2.0415 -2.20411,-9.30945 -3.21519,-12.61553c-0.31186,-1.01972 12.64705,-4.19618 22.9525,-5.44787c5.06715,-0.61548 4.65502,14.33704 4.65502,14.33704" data-paper-data="{&quot;index&quot;:null}" fill="#ae8c6e" stroke="#000000" stroke-width="7.5" stroke-linecap="round"/><path d="M145.02499,207.84424c-0.31058,-6.21155 2.91122,-21.67866 14.11163,-30.92103c6.2799,-5.18208 14.05078,-7.90421 20.95341,-9.02917c5.40845,-0.88144 10.28384,-0.78233 13.49135,-0.1177c7.99289,1.65618 14.04317,9.25856 9.13525,14.33498c-0.82028,0.84844 -7.94552,2.45375 -9.71876,4.80183c-4.74428,6.28225 -20.44498,12.12902 -21.08792,12.76536c-0.05866,0.05803 -13.57581,11.07719 -20.45171,15.84414c-8.65282,5.99884 -6.12268,-1.46685 -6.43325,-7.67837z" fill="#000000" stroke="#000000" stroke-width="7.5" stroke-linecap="butt"/><path d="M180.69885,162.8c0,8.56042 -7.2837,15.5 -16.2686,15.5c-8.9849,0 -16.2686,-6.93959 -16.2686,-15.5c0,-8.56041 7.2837,-15.5 16.2686,-15.5c8.98489,0 16.2686,6.93958 16.2686,15.5z" fill="#000000" stroke="#000000" stroke-width="7.5" stroke-linecap="butt"/><path d="M156.36553,185.46668c0,8.56042 -7.2837,15.5 -16.2686,15.5c-8.98489,0 -16.26859,-6.93958 -16.26859,-15.5c0,-8.56042 7.2837,-15.5 16.26859,-15.5c8.98489,0 16.2686,6.93958 16.2686,15.5z" fill="#000000" stroke="#000000" stroke-width="7.5" stroke-linecap="butt"/><path d="M196.96463,216.24894l0.66667,-15.56718" fill="none" stroke="#543d00" stroke-width="7.5" stroke-linecap="round"/><path d="M187.89489,201.12309v14.08377" fill="none" stroke="#543d00" stroke-width="7.5" stroke-linecap="round"/></g></g></svg>