<svg version="1.1" xmlns="http://www.w3.org/2000/svg" xmlns:xlink="http://www.w3.org/1999/xlink" width="134.5363" height="246.52824" viewBox="0,0,134.5363,246.52824"><g transform="translate(-3.37833,-128.83871)"><g data-paper-data="{&quot;isPaintingLayer&quot;:true}" fill-rule="nonzero" stroke-linejoin="miter" stroke-miterlimit="10" stroke-dasharray="" stroke-dashoffset="0" style="mix-blend-mode: normal"><g stroke="#000000" stroke-width="7.5" stroke-linecap="round"><path d="M90.72899,235.53501c0,0 7.37951,-3.57586 11.86156,-1.55682c6.51891,2.93658 10.93073,11.95213 11.01762,13.18277c0.6404,9.07517 2.45052,31.55371 -0.72283,43.80597c-4.60429,17.77682 -16.49957,15.77679 -20.06632,12.44698c-8.77222,-8.18945 -12.4171,-36.28439 -12.19164,-42.32476c0.37025,-9.9207 11.99813,-25.15163 11.99813,-25.15163" fill="#3e3e3e"/><g fill="#ffcb90"><path d="M119.54297,326.89862c0,0 -21.9932,8.64925 -23.08426,7.30226c-2.44042,-3.01279 -6.6698,-9.0245 -8.48194,-16.37771c-2.13948,-8.68147 -0.96961,-18.03234 0.21924,-18.17385c3.38756,-0.40326 7.25577,-3.89828 12.46953,-4.05658c5.21375,-0.15833 9.96669,2.27186 11.27184,3.3356c6.39528,5.2124 8.2935,26.96135 8.2935,26.96135"/><path d="M132.86895,344.63318c0,0 -8.27755,-5.08797 -8.37463,-3.24728c-0.00167,0.03117 -0.09383,15.37854 -4.16538,16.61424c-5.38788,1.63518 -15.14517,-6.01198 -15.51763,-6.66415c-1.17145,-2.05136 -4.7183,-9.44666 -6.67619,-12.75957c-0.60387,-1.02181 14.7343,-6.75887 27.20477,-9.97278c6.13166,-1.58027 8.82474,14.3172 8.82474,14.3172"/></g></g><path d="M54.32128,249.63522v-38.14352h28.07365v38.14352z" fill="#ffcb90" stroke="none" stroke-width="0" stroke-linecap="butt"/><path d="M41.19992,339.24678c0,0 3.94608,-14.85886 1.54832,-31.904c-1.42244,-10.11172 -9.62591,-22.3092 -9.79134,-29.03627c-0.34291,-13.94522 -1.21659,-42.14166 -1.21659,-42.14166c0,0 3.52271,-7.84051 16.50766,-9.40308c3.54879,-0.42706 15.61015,13.44457 22.74696,13.8977c2.6306,0.16701 5.34802,-11.39806 8.03661,-11.41983c3.35103,-0.02711 2.8421,-3.72373 5.94322,-3.91031c9.40556,-0.56589 21.86689,9.95775 21.86689,9.95775l-0.95031,103.45187z" fill="#3d260b" stroke="none" stroke-width="0" stroke-linecap="butt"/><path d="M44.00638,371.05224v-29.59936h63.47081v29.59936z" fill="#1c2436" stroke="none" stroke-width="0" stroke-linecap="butt"/><path d="M63.30171,272.82875l-9.61061,14.04629l-9.46276,-12.8388l9.61061,-14.53913z" fill="#2e1b00" stroke="#000000" stroke-width="2.5" stroke-linecap="round"/><path d="M63.30171,301.11699l-9.61061,14.04629l-9.46276,-12.8388l9.61061,-14.53914z" fill="#2e1b00" stroke="#000000" stroke-width="2.5" stroke-linecap="round"/><path d="M63.30171,330.22517c0,0 -2.82704,4.13182 -4.34488,6.3502c-1.67096,2.44218 -9.21542,2.33727 -10.914,0.03269c-1.39588,-1.89389 -3.8145,-5.1754 -3.8145,-5.1754l9.61061,-14.53913z" fill="#2e1b00" stroke="#000000" stroke-width="2.5" stroke-linecap="round"/><path d="M83.80043,272.0088l-9.61061,14.04629l-9.46276,-12.8388l9.61062,-14.53913z" fill="#212121" stroke="#000000" stroke-width="2.5" stroke-linecap="round"/><path d="M83.80043,300.29705l-9.61061,14.04629l-9.46276,-12.8388l9.61062,-14.53913z" fill="#212121" stroke="#000000" stroke-width="2.5" stroke-linecap="round"/><path d="M83.80043,329.40522c0,0 -2.82704,4.13183 -4.34487,6.3502c-1.67096,2.44218 -9.21542,2.33727 -10.914,0.03269c-1.39588,-1.89389 -3.8145,-5.1754 -3.8145,-5.1754l9.61062,-14.53913z" fill="#212121" stroke="#000000" stroke-width="2.5" stroke-linecap="round"/><path d="M102.65926,272.41878l-9.61062,14.04629l-9.46275,-12.8388l9.61061,-14.53913z" fill="#2e1b00" stroke="#000000" stroke-width="2.5" stroke-linecap="round"/><path d="M102.65926,300.70702l-9.61062,14.04628l-9.46275,-12.8388l9.61061,-14.53913z" fill="#2e1b00" stroke="#000000" stroke-width="2.5" stroke-linecap="round"/><path d="M102.65926,329.81521c0,0 -2.82703,4.13182 -4.34487,6.3502c-1.67096,2.44218 -9.21542,2.33727 -10.91401,0.03269c-1.39588,-1.89389 -3.81449,-5.1754 -3.81449,-5.1754l9.61061,-14.53913z" fill="#2e1b00" stroke="#000000" stroke-width="2.5" stroke-linecap="round"/><path d="M82.86022,214.87916l-0.32549,8.46278c0,0 21.94281,9.80534 24.35332,21.14089c2.4105,11.33555 -4.74581,65.46001 -2.23365,82.87755c2.70813,18.77658 3.23646,32.53389 3.05752,44.25657" fill="none" stroke="#000000" stroke-width="7.5" stroke-linecap="round"/><path d="M111.23754,230.45972" fill="none" stroke="#000000" stroke-width="2.5" stroke-linecap="round"/><path d="M68.50278,362.05224l15.2574,0.30515" fill="none" stroke="#000000" stroke-width="7.5" stroke-linecap="round"/><path d="M105.03602,340.70166l-58.89363,-1.2206" fill="none" stroke="#000000" stroke-width="7.5" stroke-linecap="round"/><path d="M42.60355,371.57861c0,0 1.81798,-2.09975 -2.33503,-38.15606c-3.1029,-26.93928 -16.95574,-74.09727 -16.08225,-86.13208c0.95544,-13.16366 25.86438,-23.44807 25.86438,-23.44807v-11.06672" fill="none" stroke="#000000" stroke-width="7.5" stroke-linecap="round"/><path d="M68.14003,215.84324c0,0 -24.15473,-2.00625 -32.68404,-18.39297c-7.32892,-14.08054 0.88357,-42.86848 4.71209,-47.98741c6.01578,-8.04338 24.3095,-13.3512 29.08733,-13.32752c3.85392,0.01907 17.77581,2.43051 23.14051,9.18037c3.92507,4.93851 15.96076,36.02283 10.53558,49.92649c-7.34348,18.81982 -33.67683,20.78842 -33.67683,20.78842" fill="#ffcb90" stroke="#000000" stroke-width="7.5" stroke-linecap="round"/><path d="M88.63129,191.58227v-16.90052" fill="none" stroke="#000000" stroke-width="7.5" stroke-linecap="round"/><path d="M78.56155,192.0236v-16.90052" fill="none" stroke="#000000" stroke-width="7.5" stroke-linecap="round"/><path d="M31.58701,176.6622c-0.33724,-6.74482 3.16115,-23.53982 15.32314,-33.57567c12.162,-10.03588 29.47395,-11.57491 37.40191,-9.93215c8.67909,1.79837 15.2488,10.05343 9.91953,15.56567c-0.8907,0.92128 -3.08951,13.78309 -4.82748,14.16103c-2.08527,0.45346 -3.80018,-11.49662 -5.72565,-8.94695c-5.15158,6.8216 -9.29715,20.3646 -14.45631,24.14536c-0.92138,0.67521 -7.74392,-10.97504 -8.44205,-10.28407c-0.06369,0.06301 -14.74132,12.02819 -22.20754,17.20439c-9.39569,6.51386 -6.64832,-1.59279 -6.98556,-8.33758z" fill="#1d0d00" stroke="#000000" stroke-width="7.5" stroke-linecap="butt"/><g stroke="#000000" stroke-width="7.5" stroke-linecap="round"><path d="M20.03893,244.11445c0,0 6.85116,-4.21338 11.17332,-2.08464c6.2864,3.09618 10.01616,11.79778 10.01099,12.95903c-0.03837,8.56331 0.08996,29.78553 -3.99157,41.13867c-5.92192,16.47232 -17.64359,13.97946 -20.95448,10.66577c-8.14295,-8.1498 -9.68298,-34.74579 -9.00706,-40.4119c1.11008,-9.30598 13.85122,-23.02338 13.85122,-23.02338" fill="#3e3e3e"/><path d="M41.33754,328.50909c0,0 -23.18416,5.60259 -24.0459,4.22392c-1.9275,-3.08368 -5.13965,-9.16507 -5.74018,-16.22683c-0.70904,-8.33735 1.96794,-16.9282 3.1682,-16.92697c3.42013,0.00352 7.81837,-2.8229 13.00723,-2.38624c5.18886,0.43665 9.50102,3.2361 10.62077,4.37459c5.48681,5.57862 3.83496,26.07756 3.83496,26.07756" fill="#ffcb90"/><path d="M51.28818,346.83969c0,0 -7.37102,-5.67347 -7.76602,-3.96748c-0.00671,0.02888 -2.59008,14.33372 -6.82277,15.02998c-5.60111,0.92138 -14.02194,-7.3051 -14.28486,-7.95513c-0.82701,-2.04465 -3.13856,-9.34013 -4.53949,-12.64969c-0.43212,-1.02076 15.68879,-4.65292 28.56006,-6.25299c6.32875,-0.78677 6.41421,14.34333 6.41421,14.34333" fill="#ffcb90"/></g><path d="M63.30171,246.32875l-9.61061,14.04629l-9.46276,-12.8388l9.61061,-14.53913z" fill="#2e1b00" stroke="#000000" stroke-width="2.5" stroke-linecap="round"/><path d="M83.80043,245.5088l-9.61061,14.04629l-9.46276,-12.8388l10.61062,-12.03913z" fill="#212121" stroke="#000000" stroke-width="2.5" stroke-linecap="round"/><path d="M92.43751,226.46215l-19.73157,28.27087l-27.39343,-29.14587l7.375,-2.125l17.375,18.125l13.5,-19z" fill="#000000" stroke="#000000" stroke-width="2.5" stroke-linecap="round"/><path d="M103.15926,244.91878l-9.61062,14.04629l-9.46275,-12.8388l9.61061,-14.53913z" fill="#2e1b00" stroke="#000000" stroke-width="2.5" stroke-linecap="round"/></g></g></svg>