<svg version="1.1" xmlns="http://www.w3.org/2000/svg" xmlns:xlink="http://www.w3.org/1999/xlink" width="145.03631" height="282.48042" viewBox="0,0,145.03631,282.48042"><g transform="translate(-7.37834,-120.80381)"><g data-paper-data="{&quot;isPaintingLayer&quot;:true}" fill-rule="nonzero" stroke-linejoin="miter" stroke-miterlimit="10" stroke-dasharray="" stroke-dashoffset="0" style="mix-blend-mode: normal"><g stroke="#000000" stroke-width="7.5" stroke-linecap="round"><path d="M101.82325,237.25073c0,0 7.95813,-4.50477 12.79161,-1.96124c7.03005,3.69942 11.7878,15.05696 11.8815,16.60729c0.69061,11.43266 2.64266,39.7505 -0.77951,55.18557c-4.96531,22.39475 -17.79329,19.87517 -21.6397,15.68037c-9.46004,-10.31685 -13.39071,-45.71008 -13.14758,-53.31957c0.39928,-12.49782 12.93889,-31.68534 12.93889,-31.68534" fill="#141414"/><g fill="#ffcb90"><path d="M132.8965,352.34809c0,0 -23.71767,10.89608 -24.89428,9.19919c-2.63177,-3.79543 -7.19277,-11.36881 -9.147,-20.63219c-2.30723,-10.93667 -1.04564,-22.71664 0.23643,-22.89491c3.65317,-0.50802 7.82469,-4.91094 13.44725,-5.11037c5.62256,-0.19946 10.74817,2.86203 12.15565,4.2021c6.89673,6.56644 8.94378,33.96517 8.94378,33.96517"/><path d="M147.26737,374.68961c0,0 -8.92659,-6.40969 -9.03128,-4.09084c-0.0018,0.03927 -0.10119,19.37347 -4.49198,20.93016c-5.81034,2.05996 -16.33269,-7.57373 -16.73435,-8.39532c-1.2633,-2.58425 -5.08826,-11.90064 -7.19966,-16.07416c-0.65122,-1.28724 15.8896,-8.51464 29.33787,-12.56343c6.61244,-1.99078 9.51668,18.03641 9.51668,18.03641"/></g></g><path d="M62.02164,252.60132v-41.13432h30.27488v41.13432z" fill="#ffcb90" stroke="none" stroke-width="0" stroke-linecap="butt"/><g fill="none" stroke="#000000" stroke-width="1.5" stroke-linecap="round"><path d="M97.6642,319.05956l27.23575,4.76908l-19.50109,24.55118l26.17762,2.12894"/><path d="M132.40495,345.63909l-29.00773,-2.97183l17.95354,-23.74005"/><path d="M100.66189,327.50686l29.00321,7.87489l-17.48066,24.0505"/><path d="M100.50214,332.64636l22.24199,5.80464l-13.41146,17.07901"/></g><path d="M47.87145,349.04264c0,0 4.25549,-15.9983 1.66972,-34.35051c-1.53397,-10.88713 -10.38067,-24.01995 -10.55907,-31.26287c-0.3698,-15.01459 -1.31198,-45.37324 -1.31198,-45.37324c0,0 3.79892,-8.44175 17.80201,-10.12415c3.82705,-0.45981 16.83413,14.47554 24.53053,14.96343c2.83686,0.17982 5.76735,-12.27211 8.66675,-12.29554c3.61378,-0.02918 3.06495,-4.00927 6.40922,-4.21016c10.14304,-0.60929 23.58145,10.72134 23.58145,10.72134l-1.02482,111.38494z" fill="#141414" stroke="none" stroke-width="0" stroke-linecap="butt"/><path d="M46.81955,382.0283v-31.92022h68.4475v31.92022z" fill="#1c2436" stroke="none" stroke-width="0" stroke-linecap="butt"/><path d="M92.79829,216.12007l-0.35101,8.1465c0,0 23.66333,9.43888 26.26284,20.35079c2.59951,10.9119 -5.11792,63.01355 -2.40879,79.78014c2.92047,18.07483 2.7713,46.72002 2.57832,58.00458" fill="none" stroke="#000000" stroke-width="7.5" stroke-linecap="round"/><path d="M123.40065,231.92228" fill="none" stroke="#000000" stroke-width="2.5" stroke-linecap="round"/><path d="M72.15828,382.0283l16.45372,0.32908" fill="none" stroke="#000000" stroke-width="7.5" stroke-linecap="round"/><path d="M112.63447,351.0953l-63.51142,-1.31631" fill="none" stroke="#000000" stroke-width="7.5" stroke-linecap="round"/><path d="M47.58779,387.51753c0,0 3.75787,-19.8568 -0.72078,-55.47729c-3.3462,-26.61366 -18.28522,-73.20165 -17.34324,-85.09098c1.03035,-13.00455 27.89238,-23.16465 27.89238,-23.16465v-10.93295" fill="none" stroke="#000000" stroke-width="7.5" stroke-linecap="round"/><path d="M89.66391,228.24977c0,0 -6.53804,19.08634 -10.85946,19.08634c-5.56298,0 -19.74448,-19.08634 -19.74448,-19.08634" fill="none" stroke="#000000" stroke-width="7.5" stroke-linecap="round"/><path d="M76.92391,215.82641c0,0 -26.04868,-2.16356 -35.24676,-19.83515c-7.90357,-15.18458 0.95285,-46.22976 5.08156,-51.75006c6.48747,-8.67405 26.21558,-14.39805 31.36804,-14.37252c4.1561,0.02057 19.16959,2.62108 24.95494,9.90019c4.23283,5.32573 17.21223,38.84735 11.36167,53.84118c-7.91927,20.29546 -36.3174,22.41842 -36.3174,22.41842" fill="#ffcb90" stroke="#000000" stroke-width="7.5" stroke-linecap="round"/><path d="M91.87848,184.18682v-18.22567" fill="none" stroke-opacity="0.65098" stroke="#000000" stroke-width="7.5" stroke-linecap="round"/><path d="M91.97301,161.20415v18.22567" fill="none" stroke="#000000" stroke-width="7.5" stroke-linecap="round"/><path d="M77.87847,179.43682v-18.22567" fill="none" stroke="#000000" stroke-width="7.5" stroke-linecap="round"/><path d="M35.7336,172.08306c-0.36368,-7.27367 3.40901,-25.38556 16.52461,-36.20831c13.11561,-10.82278 31.78497,-12.48249 40.33456,-10.71092c5.80394,1.20262 14.4301,11.204 17.15293,20.09686c1.66809,5.44804 -0.75349,11.10471 -1.89142,12.23216c-2.35324,2.33158 -6.73894,0.20164 -8.15859,-0.13729c-1.40083,-0.33444 -12.49286,18.85323 -13.88155,18.79743c-2.02522,-0.08138 -3.63908,-23.30499 -5.31837,-23.31096c-3.74138,-0.0133 -11.18638,24.22865 -16.99549,24.25241c-3.94566,0.01614 -6.59795,-23.88884 -8.91043,-24.73884c-0.56049,-0.20602 -3.27135,23.13677 -11.32299,28.71883c-10.1324,7.02461 -7.16961,-1.71768 -7.53329,-8.99132z" fill="#141414" stroke="#000000" stroke-width="7.5" stroke-linecap="butt"/><g stroke="#000000" stroke-width="7.5" stroke-linecap="round"><path d="M25.05125,247.34341c0,0 7.38835,-5.63539 12.04941,-2.7882c6.77931,4.14113 10.80152,15.77951 10.79594,17.33268c-0.04138,11.45341 0.09701,39.83807 -4.30455,55.02287c-6.38625,22.03168 -19.02701,18.69749 -22.5975,14.26544c-8.78143,-10.90034 -10.44221,-46.47241 -9.7133,-54.05081c1.19712,-12.44673 14.93728,-30.79371 14.93728,-30.79371" fill="#141414"/><path d="M48.01986,360.22102c0,0 -25.00201,7.49345 -25.93132,5.64948c-2.07863,-4.12441 -5.54264,-12.25826 -6.19026,-21.70335c-0.76464,-11.15118 2.12224,-22.64142 3.41662,-22.63978c3.6883,0.00471 8.4314,-3.77562 14.02711,-3.19159c5.59571,0.58402 10.24599,4.32828 11.45353,5.851c5.91703,7.46139 4.13566,34.87867 4.13566,34.87867" fill="#ffcb90"/><path d="M58.75072,384.73816c0,0 -7.94897,-7.58826 -8.37495,-5.30649c-0.00724,0.03863 -2.79317,19.17132 -7.35774,20.10256c-6.04029,1.23234 -15.12139,-9.77055 -15.40492,-10.63997c-0.89185,-2.73472 -3.38465,-12.4924 -4.89543,-16.91893c-0.466,-1.36527 16.91893,-6.22327 30.79943,-8.36335c6.82498,-1.0523 6.91714,19.18417 6.91714,19.18417" fill="#ffcb90"/></g><path d="M77.87847,172.03637v12.15045" fill="none" stroke-opacity="0.65098" stroke="#000000" stroke-width="7.5" stroke-linecap="round"/><path d="M67.77833,193.40369l16.75,2.5" fill="none" stroke="#000000" stroke-width="7.5" stroke-linecap="round"/><g fill="none" stroke="#000000" stroke-width="1.5" stroke-linecap="round"><path d="M18.32834,319.45738l25.7,10.2l-24.08,20.08l25.2,7.4"/><path d="M46.94833,352.53738l-27.8,-8.8l22.4,-19.6"/><path d="M19.54833,328.33738l26.8,13.6l-22,20"/><path d="M18.34833,333.33738l20.6,10.2l-16.6,14"/></g></g></g></svg>