<svg version="1.1" xmlns="http://www.w3.org/2000/svg" xmlns:xlink="http://www.w3.org/1999/xlink" width="123.86965" height="282.18498" viewBox="0,0,123.86965,282.18498"><g transform="translate(-3.0231,-115.81669)"><g data-paper-data="{&quot;isPaintingLayer&quot;:true}" fill-rule="nonzero" stroke-linejoin="miter" stroke-miterlimit="10" stroke-dasharray="" stroke-dashoffset="0" style="mix-blend-mode: normal"><path d="M98.39081,129.69525c6.96642,-4.28666 17.62966,0.38976 23.81701,10.44506c4.85112,7.88377 3.44899,25.51787 -3.59285,34.29987c-1.12182,1.39906 -6.14399,-9.61978 -6.14399,-9.61978c0,0 -5.13631,13.18146 -5.77065,13.57179c-6.96642,4.28666 -3.5328,-12.6732 -9.72014,-22.72851c-6.18735,-10.05531 -5.55579,-21.68177 1.41064,-25.96843z" data-paper-data="{&quot;index&quot;:null}" fill="#c27676" stroke="#000000" stroke-width="2.5" stroke-linecap="butt"/><path d="M92.93955,139.88628c-0.05036,-5.66434 3.98394,-10.64112 10.51895,-11.82438c6.53502,-1.18326 10.53776,3.143 14.59805,7.27659c4.17277,4.24812 7.13615,16.3291 7.13615,16.3291l-15.43878,-3.62891l-8.96284,12.97617c0,0 -7.79967,-15.29716 -7.85153,-21.12857z" data-paper-data="{&quot;index&quot;:null}" fill="#191919" stroke="#000000" stroke-width="2.5" stroke-linecap="round"/><path d="M71.00002,394.24767l-50.7016,-3.44829c0,0 2.98346,-28.65652 10.10451,-55.46454c1.76268,-6.63582 11.91452,-13.47128 12.87681,-19.36696c1.76375,-10.80599 -4.01404,-19.28542 -4.86966,-23.226c-1.27787,-5.88532 -10.44639,-19.13474 -11.30525,-24.94959c-0.70145,-4.74911 2.27188,-13.84482 1.60345,-17.76436c-1.16534,-6.83331 -5.8219,-10.92909 -5.59573,-14.04531c0.99928,-13.76765 26.05114,-23.52394 26.05114,-23.52394v-11.5745l34.31484,0.86664l-0.34043,8.85107c0,0 19.28298,2.58855 21.80408,14.44423c0.47194,2.21934 -2.27009,7.6851 -3.12123,13.43941c-1.41844,9.5897 3.83382,22.8964 2.65926,34.92146c-0.44132,4.51821 -7.51545,8.28293 -7.87654,12.43308c-0.05833,0.67035 -0.10744,1.33864 -0.14668,2.00435c-0.39691,6.73379 -0.93419,13.93019 1.63293,19.57527c2.32122,5.10434 7.72778,8.81872 8.18277,11.97333c2.8324,19.63809 12.68772,61.09412 12.50054,73.35467z" data-paper-data="{&quot;index&quot;:null}" fill="#f5b57e" stroke="#000000" stroke-width="7.5" stroke-linecap="round"/><path d="M24.9,387.64769l10.2,-67.4l74,-2.4l6.6,71c0,0 -30.50132,1.58897 -45.79718,1.38682c-14.96351,-0.19776 -45.00282,-2.58682 -45.00282,-2.58682z" fill="#0c0c18" stroke="#000000" stroke-width="1.5" stroke-linecap="butt"/><path d="M52.03026,241.76829v-39.89368h30.96179v39.89368z" data-paper-data="{&quot;index&quot;:null}" fill="#edba8e" stroke="none" stroke-width="0" stroke-linecap="butt"/><path d="M28.84657,229.09521c4.09541,3.04799 4.63537,22.66701 4.33064,24.14225c-2.24703,10.87838 0.26677,35.41501 -6.8439,48.99959c-10.31689,19.70988 -13.9615,4.03465 -16.50091,-0.86622c-6.2455,-12.05335 -4.46365,-41.91594 -2.31001,-48.97866c1.45292,-4.76485 0.98633,-10.08736 4.79089,-14.68261c0,0 12.4379,-11.66232 16.5333,-8.61434z" fill="#171717" stroke="#000000" stroke-width="7.5" stroke-linecap="round"/><path d="M66.92856,248.30784l-0.41666,-6.08333l-0.3135,-6.01386" fill="none" stroke="#000000" stroke-width="2.5" stroke-linecap="round"/><path d="M113.158,221.71289" data-paper-data="{&quot;index&quot;:null}" fill="none" stroke="#000000" stroke-width="2.5" stroke-linecap="round"/><path d="M101.95927,313.29477c0,0 -21.95902,8.71991 -31.26388,9.36633c-8.48462,0.58943 -27.99863,-6.30963 -27.99863,-6.30963" data-paper-data="{&quot;index&quot;:null}" fill="none" stroke="#5b432e" stroke-width="7.5" stroke-linecap="round"/><path d="M51.98576,201.60401c0,0 -9.86289,-1.95358 -18.07567,-19.44245c-7.05693,-15.02759 -2.70847,-43.80432 1.51116,-48.99002c5.94693,-7.30835 31.6195,-12.42395 32.13402,-12.40037c4.02655,0.1847 17.30425,3.01614 22.62187,10.29911c2.19642,3.0082 9.38283,22.67171 9.46754,40.52922c0.06536,13.77411 -6.01381,26.68181 -9.96023,28.75199c-9.68149,5.07861 -26.7129,3.62734 -26.7129,3.62734z" data-paper-data="{&quot;index&quot;:null}" fill="#edba8e" stroke="#000000" stroke-width="7.5" stroke-linecap="round"/><path d="M36.50675,302.4723c3.3351,10.59554 17.4798,30.8018 17.88486,46.1295c0.58769,22.23898 -10.22924,10.32302 -14.83385,7.27924c-11.32474,-7.48598 -24.31128,-34.43591 -25.86976,-41.65334c-1.05145,-4.86921 -4.05099,-9.2907 -2.96591,-15.15701c0,0 8.1839,-7.90976 13.24519,-7.24205c5.06129,0.66771 12.08719,9.20679 12.53947,10.64366z" fill="#edba8e" stroke="#000000" stroke-width="7.5" stroke-linecap="round"/><path d="M60.01796,354.4109c0,0 -7.0745,-3.8857 -6.94613,-2.18572c0.00216,0.02879 1.63612,14.13497 -1.42802,15.65753c-4.05476,2.01489 -12.57733,-4.08081 -12.9427,-4.6444c-1.14924,-1.77273 -4.76045,-8.22817 -6.66832,-11.08494c-0.58846,-0.88113 10.8343,-7.61081 20.2827,-11.74987c4.64573,-2.03518 8.53089,12.3112 8.53089,12.3112" data-paper-data="{&quot;index&quot;:null}" fill="#edba8e" stroke="#000000" stroke-width="7.5" stroke-linecap="round"/><g data-paper-data="{&quot;index&quot;:null}" stroke="#000000" stroke-width="7.5" stroke-linecap="round"><path d="M100.59821,220.59522c4.0954,-3.04798 16.5333,8.61434 16.5333,8.61434c3.80456,4.59525 3.33797,9.91776 4.79089,14.68261c2.15364,7.06272 3.93549,36.92531 -2.31001,48.97866c-2.53941,4.90087 -6.18402,20.5761 -16.50091,0.86622c-7.11067,-13.58458 -4.59687,-38.12121 -6.8439,-48.99959c-0.30473,-1.47524 0.23523,-21.09426 4.33064,-24.14225z" fill="#171717"/><path d="M101.32973,288.77141c4.41242,-2.56769 16.63425,3.57923 16.84807,3.99412c2.3786,4.61532 1.55267,9.39403 2.38523,13.88813c1.34505,7.26023 -0.24542,37.13362 -7.80783,48.40747c-3.07486,4.58392 -8.46054,19.74935 -16.49356,-0.99645c-5.53656,-14.29856 -0.27716,-38.39637 -1.28557,-49.45853c-0.13675,-1.50016 1.94123,-13.26706 6.35365,-15.83475z" fill="#edba8e"/><path d="M91.89196,360.34849c0,0 -1.9472,-14.73505 3.12403,-14.64862c10.31373,0.17572 23.44808,1.98041 23.24489,3.0203c-0.65877,3.37151 -1.50153,10.72021 -1.87833,12.799c-0.11979,0.66089 -5.63282,9.57146 -10.15095,9.27589c-3.41428,-0.2233 -7.34595,-13.86866 -7.35507,-13.89606c-0.53706,-1.61801 -5.56617,4.6951 -5.56617,4.6951" data-paper-data="{&quot;index&quot;:null}" fill="#edba8e"/></g><path d="" fill="none" stroke="#000000" stroke-width="0.5" stroke-linecap="round"/><path d="M64.9,325.94769v-6.6h8.4v6.6z" fill="#5b432e" stroke="#000000" stroke-width="1.5" stroke-linecap="butt"/><path d="M69.3,312.34769c0,0.44183 -0.3134,0.8 -0.7,0.8c-0.3866,0 -0.7,-0.35817 -0.7,-0.8c0,-0.44183 0.3134,-0.8 0.7,-0.8c0.3866,0 0.7,0.35817 0.7,0.8z" fill="#5b432e" stroke="#000000" stroke-width="1.5" stroke-linecap="butt"/><path d="M74.9,394.3477l-3.8,-67.6" fill="none" stroke="#000000" stroke-width="1.5" stroke-linecap="round"/><path d="M81.5,324.5477l0.8,40.8l-8.6,7.4" fill="none" stroke="#000000" stroke-width="1.5" stroke-linecap="round"/><path d="M31.52502,127.69525c6.96642,4.28666 7.59799,15.91312 1.41064,25.96843c-6.18734,10.05531 -2.75372,27.01518 -9.72014,22.72851c-0.63433,-0.39033 -5.77065,-13.57179 -5.77065,-13.57179c0,0 -5.02216,11.01883 -6.14399,9.61977c-7.04185,-8.78201 -8.44398,-26.4161 -3.59286,-34.29987c6.18735,-10.0553 16.85058,-14.73172 23.81701,-10.44506z" fill="#94c277" stroke="#000000" stroke-width="2.5" stroke-linecap="butt"/><path d="M29.12477,159.01485l-8.96285,-12.97617l-15.43877,3.62891c0,0 2.96338,-12.08097 7.13615,-16.3291c4.06028,-4.13359 8.06303,-8.45985 14.59805,-7.27659c6.53501,1.18326 10.56931,6.16004 10.51895,11.82439c-0.05186,5.8314 -7.85153,21.12856 -7.85153,21.12856z" fill="#191919" stroke="#000000" stroke-width="2.5" stroke-linecap="round"/><path d="M98.86667,217.73335c0,0 -6.20794,9.39567 -6.11154,4.31856c0.18057,-9.51004 0.7782,-52.65189 0.7782,-52.65189c0,0 -7.68529,-5.25897 -12.81901,-10.17423c-5.30511,-5.07935 -18.51433,-19.82577 -18.51433,-19.82577c0,0 -1.53447,13.40306 -3.53659,18.83739c-1.87894,5.09998 -6.79674,13.49594 -6.79674,13.49594l-0.66667,61l-4.55,-16.25l-3.78333,16.25c0,0 0.15382,-24.63648 -2.44161,-37.99086c-0.84309,-4.338 -4.65973,-7.48552 -5.34375,-8.21141c-7.17642,-7.61553 -10.88131,-23.62619 -10.88131,-29.29773c0,-22.18344 17.46089,-40.16666 39,-40.16666c21.53911,0 39.53847,13.29092 39.53847,35.47436z" fill="#191919" stroke="#000000" stroke-width="2.5" stroke-linecap="round"/><path d="M47.08334,313.03191c0,0 -8.5106,-15.9395 -13.08017,-34.69077c-4.76144,-19.53861 -5.56547,-42.04433 -4.31017,-48.40274c1.38876,-7.03439 18.47367,-11.90649 18.47367,-11.90649l14.99646,14.71342c0,0 17.09207,-15.59686 18.42205,-16.18868c8.69624,-3.86966 14.91483,7.14192 14.91483,7.14192l-1,87.25c0,0 -13.51953,5.6992 -21.94612,6.63692c-9.63358,1.07203 -26.47055,-4.55358 -26.47055,-4.55358z" fill="#171717" stroke="#000000" stroke-width="2.5" stroke-linecap="butt"/><g fill="#d3d3d3" stroke-linecap="butt"><path d="M63.27572,294.43334v-34.66667h6.41975v34.66667z" stroke="#000000" stroke-width="0"/><path d="M83.82971,280.25111l-34.66647,0.11752l-0.02176,-6.41971l34.66647,-0.11752z" stroke="#000000" stroke-width="0"/><text transform="translate(54.00274,271.17958) scale(0.21399,0.21399)" font-size="40" xml:space="preserve" fill="#d3d3d3" fill-rule="nonzero" stroke="none" stroke-width="1" stroke-linecap="butt" stroke-linejoin="miter" stroke-miterlimit="10" stroke-dasharray="" stroke-dashoffset="0" font-family="Handwriting" font-weight="normal" text-anchor="start" style="mix-blend-mode: normal"><tspan x="0" dy="0">M</tspan></text><text transform="translate(73.262,271.17958) scale(0.21399,0.21399)" font-size="40" xml:space="preserve" fill="#d3d3d3" fill-rule="nonzero" stroke="none" stroke-width="1" stroke-linecap="butt" stroke-linejoin="miter" stroke-miterlimit="10" stroke-dasharray="" stroke-dashoffset="0" font-family="Handwriting" font-weight="normal" text-anchor="start" style="mix-blend-mode: normal"><tspan x="0" dy="0">F</tspan></text><text transform="translate(53.86008,289.29755) scale(0.21399,0.21399)" font-size="40" xml:space="preserve" fill="#d3d3d3" fill-rule="nonzero" stroke="none" stroke-width="1" stroke-linecap="butt" stroke-linejoin="miter" stroke-miterlimit="10" stroke-dasharray="" stroke-dashoffset="0" font-family="Handwriting" font-weight="normal" text-anchor="start" style="mix-blend-mode: normal"><tspan x="0" dy="0">R</tspan></text><text transform="translate(73.11934,289.44022) scale(0.21399,0.21399)" font-size="40" xml:space="preserve" fill="#d3d3d3" fill-rule="nonzero" stroke="none" stroke-width="1" stroke-linecap="butt" stroke-linejoin="miter" stroke-miterlimit="10" stroke-dasharray="" stroke-dashoffset="0" font-family="Handwriting" font-weight="normal" text-anchor="start" style="mix-blend-mode: normal"><tspan x="0" dy="0">X</tspan></text></g><path d="M86.44097,180.29614l-0.06657,-7.05586l0.09807,10.60353" data-paper-data="{&quot;index&quot;:null}" fill="none" stroke="#7ea466" stroke-width="7.5" stroke-linecap="round"/><path d="M73.27429,177.04614l0.01677,-4.30586l0.09807,10.60353" data-paper-data="{&quot;index&quot;:null}" fill="none" stroke="#7ea466" stroke-width="7.5" stroke-linecap="round"/></g></g></svg>