<svg version="1.1" xmlns="http://www.w3.org/2000/svg" xmlns:xlink="http://www.w3.org/1999/xlink" width="132.32795" height="235.85199" viewBox="0,0,132.32795,235.85199"><g transform="translate(-7.62413,-130.20001)"><g data-paper-data="{&quot;isPaintingLayer&quot;:true}" fill-rule="nonzero" stroke-linejoin="miter" stroke-miterlimit="10" stroke-dasharray="" stroke-dashoffset="0" style="mix-blend-mode: normal"><path d="M39.73626,353.06823c1.76268,-6.63582 3.58118,-17.80461 4.54348,-23.70029c1.76375,-10.80599 -4.01404,-19.28542 -4.86966,-23.226c-1.27787,-5.88532 -10.44639,-19.13474 -11.30525,-24.94959c-0.70145,-4.74911 2.27188,-13.84482 1.60345,-17.76436c-1.16534,-6.83331 -5.8219,-10.92909 -5.59573,-14.04531c0.99928,-13.76765 26.05114,-23.52394 26.05114,-23.52394v-11.5745l34.31484,0.86664l-0.34043,8.85107c0,0 19.28298,2.58855 21.80408,14.44423c0.47194,2.21934 -2.27009,7.6851 -3.12123,13.43941c-1.41844,9.5897 3.83382,22.8964 2.65926,34.92146c-0.44132,4.51821 -7.51545,8.28293 -7.87654,12.43308c-0.05833,0.67035 -0.10744,1.33864 -0.14668,2.00435c-0.39691,6.73379 -3.63929,27.72733 -3.1843,30.88194c1.24363,8.62254 2.68069,12.91309 7.99921,25.77404c1.63323,3.9494 -1.81184,4.25707 -7.409,4.40155c-7.08478,0.18288 -17.81838,-0.49793 -28.28491,-1.0439c-15.66445,-0.8171 -30.08442,4.01754 -26.84174,-8.18988z" data-paper-data="{&quot;index&quot;:null}" fill="#f5b57e" stroke="#000000" stroke-width="7.5" stroke-linecap="round"/><path d="M90.58282,233.09505c0,0 4.51946,-5.17207 8.31558,-3.79786c5.52131,1.99872 10.15225,9.83446 10.37744,10.96024c1.66051,8.30154 5.95016,28.83945 5.00341,40.48707c-1.37362,16.89959 -11.02116,16.35042 -14.26132,13.66738c-7.969,-6.59876 -14.42211,-32.11764 -15.01269,-37.71409c-0.97005,-9.19156 6.27372,-24.5078 6.27372,-24.5078" data-paper-data="{&quot;index&quot;:null}" fill="#171717" stroke="#000000" stroke-width="7.5" stroke-linecap="round"/><path d="M123.87869,311.4595c0,0 -17.00235,9.1175 -17.9476,7.9191c-2.11423,-2.68041 -5.82364,-8.0603 -7.68673,-14.80558c-2.19964,-7.96366 -1.80465,-16.71184 -0.86693,-16.90169c2.67204,-0.54098 5.54941,-3.97906 9.68845,-4.38194c4.139,-0.4029 8.05971,1.6226 9.15907,2.54725c5.3868,4.53079 8.14326,24.6514 8.14326,24.6514" data-paper-data="{&quot;index&quot;:null}" fill="#f5b57e" stroke="#000000" stroke-width="7.5" stroke-linecap="round"/><path d="M135.26934,327.63284c0,0 -6.87726,-4.32276 -6.84897,-2.60728c0.00046,0.02906 0.80656,14.2976 -2.36201,15.64576c-4.19295,1.78411 -12.39413,-4.8447 -12.72781,-5.43256c-1.04958,-1.84904 -4.29525,-8.54838 -6.04279,-11.53143c-0.53901,-0.92008 11.33545,-7.00452 21.07292,-10.60323c4.78787,-1.7695 7.8414,12.8737 7.8414,12.8737" data-paper-data="{&quot;index&quot;:null}" fill="#f5b57e" stroke="#000000" stroke-width="7.5" stroke-linecap="round"/><path d="M39.30745,361.48106l7.66667,-33.33333l49.66667,2.33333l7,31.66667z" fill="#1c0c00" stroke="#000000" stroke-width="2.5" stroke-linecap="butt"/><path d="M53.03027,255.16833v-39.89368h30.96179v39.89368z" data-paper-data="{&quot;index&quot;:null}" fill="#f5b57e" stroke="none" stroke-width="0" stroke-linecap="butt"/><path d="M43.83334,327.4319c0,0 -13.60037,-74.63291 -11.14034,-87.09351c1.38876,-7.03439 18.47367,-11.90649 18.47367,-11.90649l14.99646,14.71342c0,0 17.09207,-15.59686 18.42205,-16.18868c8.69624,-3.86966 14.91483,7.14192 14.91483,7.14192l-3,95z" fill="#171717" stroke="#000000" stroke-width="2.5" stroke-linecap="butt"/><path d="M114.15801,235.11293" data-paper-data="{&quot;index&quot;:null}" fill="none" stroke="#000000" stroke-width="2.5" stroke-linecap="round"/><path d="M52.98577,215.00405c0,0 -9.86289,-1.95358 -18.07567,-19.44245c-7.05693,-15.02759 -2.70847,-43.80432 1.51116,-48.99002c5.94693,-7.30835 31.6195,-12.42395 32.13402,-12.40037c4.02655,0.1847 17.30425,3.01614 22.62187,10.29911c2.19642,3.0082 9.38283,22.67171 9.46754,40.52922c0.06536,13.77411 -6.01381,26.68181 -9.96023,28.75199c-9.68149,5.07861 -26.7129,3.62734 -26.7129,3.62734z" data-paper-data="{&quot;index&quot;:null}" fill="#f5b57e" stroke="#000000" stroke-width="7.5" stroke-linecap="round"/><path d="M86.35763,191.54613l0.01677,-4.30586l0.09807,10.60353" data-paper-data="{&quot;index&quot;:null}" fill="none" stroke="#1d2022" stroke-width="7.5" stroke-linecap="round"/><path d="M34.66668,257.45725l2.80953,5.51191" fill="none" stroke="#000000" stroke-width="0.5" stroke-linecap="round"/><path d="" fill="none" stroke="#000000" stroke-width="0.5" stroke-linecap="round"/><path d="M97.51192,259.04119l1.41666,-5.16667" fill="none" stroke="#000000" stroke-width="0.5" stroke-linecap="round"/><path d="M92.83335,227.22143l-23.33334,22.33333l-6.66667,-1.33333l-15.66667,-15.33334l-2,-2.33333l5,-2.33333l15.66667,14l19,-16.33334z" fill="#171717" stroke="#000000" stroke-width="2.5" stroke-linecap="round"/><path d="M96.57224,166.88937c-5.36917,-1.85661 -3.5418,-0.18935 -10.54901,-0.18935c-3.25729,0 -7.73708,20.20398 -15.55045,30.52937c-7.02777,9.28722 -17.4209,8.76814 -20.62185,9.37828c-4.46685,0.85143 -5.63866,10.55846 -5.63866,10.55846c0,0 -26.69494,8.27422 -30.12772,-2.5647c-1.94857,-6.15256 2.18868,-36.4572 2.18868,-41.90141c0,-22.09139 26.07941,-40 58.25,-40c32.17059,0 41.3301,40.85658 22.04901,34.18935z" fill="#090907" stroke="#000000" stroke-width="5" stroke-linecap="butt"/><path d="M22.51749,242.90539c0,0 5.5921,-3.98801 8.96804,-1.77396c4.91017,3.22024 7.60553,11.91388 7.56453,13.06124c-0.30233,8.46058 -0.87363,29.43391 -4.48574,40.5477c-5.24079,16.12505 -14.50046,13.36184 -17.03309,10.00281c-6.22889,-8.26133 -6.61176,-34.5807 -5.8934,-40.16218c1.17973,-9.16701 11.76606,-22.39535 11.76606,-22.39535" data-paper-data="{&quot;index&quot;:null}" fill="#171717" stroke="#000000" stroke-width="7.5" stroke-linecap="round"/><path d="M36.80794,326.84218c0,0 -18.6488,4.94277 -19.29161,3.5584c-1.43777,-3.09635 -3.8039,-9.18768 -4.05822,-16.1809c-0.30027,-8.2564 2.10513,-16.67665 3.06135,-16.64473c2.72473,0.09098 6.31857,-2.58932 10.4387,-2.02506c4.12012,0.56423 7.4668,3.44074 8.32279,4.59436c4.19432,5.65274 2.22771,25.86584 2.22771,25.86584" data-paper-data="{&quot;index&quot;:null}" fill="#f5b57e" stroke="#000000" stroke-width="7.5" stroke-linecap="round"/><path d="M44.15388,345.20958c0,0 -5.69251,-5.79468 -6.06132,-4.11908c-0.00626,0.02837 -2.51846,14.09714 -5.91277,14.67679c-4.4917,0.76713 -10.93954,-7.57707 -11.12838,-8.22612c-0.594,-2.0415 -2.20411,-9.30945 -3.21519,-12.61553c-0.31186,-1.01972 12.64705,-4.19618 22.9525,-5.44787c5.06715,-0.61548 4.65502,14.33704 4.65502,14.33704" data-paper-data="{&quot;index&quot;:null}" fill="#f5b57e" stroke="#000000" stroke-width="7.5" stroke-linecap="round"/><g fill="#d3d3d3" stroke-linecap="butt"><path d="M66.27572,304.83333v-34.66667h6.41975v34.66667z" stroke="#000000" stroke-width="0"/><path d="M86.82971,290.6511l-34.66647,0.11752l-0.02176,-6.41971l34.66647,-0.11752z" stroke="#000000" stroke-width="0"/><text transform="translate(57.00274,281.57956) scale(0.21399,0.21399)" font-size="40" xml:space="preserve" fill="#d3d3d3" fill-rule="nonzero" stroke="none" stroke-width="1" stroke-linecap="butt" stroke-linejoin="miter" stroke-miterlimit="10" stroke-dasharray="" stroke-dashoffset="0" font-family="Handwriting" font-weight="normal" text-anchor="start" style="mix-blend-mode: normal"><tspan x="0" dy="0">M</tspan></text><text transform="translate(76.262,281.57956) scale(0.21399,0.21399)" font-size="40" xml:space="preserve" fill="#d3d3d3" fill-rule="nonzero" stroke="none" stroke-width="1" stroke-linecap="butt" stroke-linejoin="miter" stroke-miterlimit="10" stroke-dasharray="" stroke-dashoffset="0" font-family="Handwriting" font-weight="normal" text-anchor="start" style="mix-blend-mode: normal"><tspan x="0" dy="0">F</tspan></text><text transform="translate(56.86008,299.69753) scale(0.21399,0.21399)" font-size="40" xml:space="preserve" fill="#d3d3d3" fill-rule="nonzero" stroke="none" stroke-width="1" stroke-linecap="butt" stroke-linejoin="miter" stroke-miterlimit="10" stroke-dasharray="" stroke-dashoffset="0" font-family="Handwriting" font-weight="normal" text-anchor="start" style="mix-blend-mode: normal"><tspan x="0" dy="0">R</tspan></text><text transform="translate(76.11934,299.8402) scale(0.21399,0.21399)" font-size="40" xml:space="preserve" fill="#d3d3d3" fill-rule="nonzero" stroke="none" stroke-width="1" stroke-linecap="butt" stroke-linejoin="miter" stroke-miterlimit="10" stroke-dasharray="" stroke-dashoffset="0" font-family="Handwriting" font-weight="normal" text-anchor="start" style="mix-blend-mode: normal"><tspan x="0" dy="0">X</tspan></text></g></g></g></svg>